<?xml version="1.0" encoding="utf-8"?>
<!-- Generator: Adobe Illustrator 22.0.1, SVG Export Plug-In . SVG Version: 6.00 Build 0)  -->
<svg version="1.1" id="Layer_1" xmlns="http://www.w3.org/2000/svg" xmlns:xlink="http://www.w3.org/1999/xlink" x="0px" y="0px"
	 viewBox="0 0 500 500" style="enable-background:new 0 0 500 500;" xml:space="preserve">
<g>
	<path d="M67.6,214.6H25.5l8.8,17.7h24.5L67.6,214.6z"/>
	<path d="M37.7,55.4h17.7v17.7h17.7V20H20v53.1h17.7V55.4z M37.7,28.8h17.7v17.7H37.7V28.8z"/>
	<path d="M85.3,179.2H7.8l8.8,17.7h59.8L85.3,179.2z"/>
	<path d="M117.3,462.3c-34.2,0-61.9-27.7-61.9-61.9V250H37.7v150.4c0,43.9,35.7,79.6,79.6,79.6h62c-9.3-5-18-10.9-26.1-17.7H117.3z"
		/>
	<path d="M90.8,90.8H73.1v19.9c0,8.5-6.9,15.5-15.5,15.5H35.5c-8.5,0-15.5-6.9-15.5-15.5V90.8H2.3v70.8h88.5V90.8z"/>
	<path d="M37.7,90.8h17.7v17.7H37.7V90.8z"/>
	<path d="M480,90.8v19.9c0,8.5-6.9,15.5-15.5,15.5h-22.1c-8.5,0-15.5-6.9-15.5-15.5V90.8h-17.7v70.8h88.5V90.8H480z"/>
	<path d="M444.6,400.4c0,34.2-27.7,61.9-61.9,61.9h-35.9c-8.1,6.8-16.8,12.7-26.1,17.7h62c43.9,0,79.6-35.7,79.6-79.6V250h-17.7
		V400.4z"/>
	<path d="M423.5,196.9h59.8l8.8-17.7h-77.5L423.5,196.9z"/>
	<path d="M441.2,232.3h24.5l8.8-17.7h-42.1L441.2,232.3z"/>
	<path d="M444.6,90.8h17.7v17.7h-17.7V90.8z"/>
	<path d="M444.6,55.4h17.7v17.7H480V20h-53.1v53.1h17.7V55.4z M444.6,28.8h17.7v17.7h-17.7V28.8z"/>
	<path d="M382.7,347.3c0-73.3-59.4-132.7-132.7-132.7S117.3,274,117.3,347.3S176.7,480,250,480C323.2,479.9,382.6,420.6,382.7,347.3
		z M250,462.3c-63.5,0-115-51.5-115-115s51.5-115,115-115s115,51.5,115,115C364.9,410.8,313.5,462.2,250,462.3z"/>
	<path d="M250,250c-53.7,0-97.3,43.6-97.3,97.3s43.6,97.3,97.3,97.3s97.3-43.6,97.3-97.3C347.2,293.6,303.7,250.1,250,250z
		 M250,268.2c18.1,0,35.7,6.2,49.8,17.7l-11.2,13.7c-10.9-8.9-24.6-13.8-38.7-13.7V268.2z M250,426.4v-17.7
		c33.9,0,61.4-27.5,61.4-61.4c0-10.9-2.9-21.5-8.3-30.9l15.3-8.9c22,37.7,9.2,86.1-28.5,108.1C277.7,422.7,264,426.4,250,426.4z"/>
</g>
</svg>
