<?xml version="1.0" encoding="utf-8"?>
<!-- Generator: Adobe Illustrator 22.0.1, SVG Export Plug-In . SVG Version: 6.00 Build 0)  -->
<svg version="1.1" id="Layer_1" xmlns="http://www.w3.org/2000/svg" xmlns:xlink="http://www.w3.org/1999/xlink" x="0px" y="0px"
	 viewBox="0 0 500 500" style="enable-background:new 0 0 500 500;" xml:space="preserve">
<g>
	<g>
		<g>
			<path d="M467.7,148.2c-1.5-1.5-3.5-2.4-5.6-2.4H238.4c-2.1,0-4.1,0.9-5.6,2.4c-1.5,1.5-2.2,3.6-2.1,5.7l5.6,119.8
				c0.2,4.2,3.9,7.6,8.1,7.3c4.3-0.2,7.5-3.8,7.3-8.1l-5.2-111.7h207.6l-14.7,316.3H266.1c-4.3,0-7.7,3.4-7.7,7.7
				c0,4.3,3.5,7.7,7.7,7.7h180.6c4.1,0,7.5-3.2,7.7-7.4l15.4-331.7C469.9,151.8,469.2,149.8,467.7,148.2z"/>
		</g>
	</g>
	<g>
		<g>
			<path d="M323.3,431.3H45.6c-4.3,0-7.7,3.4-7.7,7.7c0,29.8,24.2,54,54,54H277c29.8,0,54-24.2,54-54
				C331,434.7,327.5,431.3,323.3,431.3z M277,477.6H91.9c-18.6,0-34.2-13.3-37.8-30.9h260.7C311.2,464.3,295.6,477.6,277,477.6z"/>
		</g>
	</g>
	<g>
		<g>
			<path d="M323.3,385H45.6c-17,0-30.9,13.8-30.9,30.9c0,17,13.8,30.9,30.9,30.9h277.7c17,0,30.9-13.8,30.9-30.9
				C354.1,398.8,340.3,385,323.3,385z M323.3,431.3H45.6c-8.5,0-15.4-6.9-15.4-15.4c0-8.5,6.9-15.4,15.4-15.4h277.7
				c8.5,0,15.4,6.9,15.4,15.4C338.7,424.4,331.8,431.3,323.3,431.3z"/>
		</g>
	</g>
	<g>
		<g>
			<path d="M346.4,238.4c-35.2,0-65.9,23.8-74.7,57.8c-1.1,4.1,1.4,8.3,5.5,9.4c4.1,1.1,8.3-1.4,9.4-5.5c7-27.2,31.6-46.2,59.8-46.2
				c34,0,61.7,27.7,61.7,61.7s-27.7,61.7-61.7,61.7c-7.1,0-14-1.2-20.6-3.5c-4-1.4-8.4,0.7-9.8,4.7c-1.4,4,0.7,8.4,4.7,9.8
				c8.2,2.9,16.9,4.4,25.7,4.4c42.5,0,77.1-34.6,77.1-77.1S389,238.4,346.4,238.4z"/>
		</g>
	</g>
	<g>
		<g>
			<path d="M199.9,261.6H169c-72.3,0-131.1,58.8-131.1,131.1c0,4.3,3.5,7.7,7.7,7.7h277.7c4.3,0,7.7-3.4,7.7-7.7
				C331,320.4,272.2,261.6,199.9,261.6z M53.5,385c4-60.2,54.2-108,115.5-108h30.9c61.2,0,111.5,47.8,115.5,108H53.5z"/>
		</g>
	</g>
	<g>
		<g>
			<rect x="107.3" y="307.9" width="15.4" height="15.4"/>
		</g>
	</g>
	<g>
		<g>
			<rect x="99.6" y="338.7" width="15.4" height="15.4"/>
		</g>
	</g>
	<g>
		<g>
			<rect x="192.1" y="300.1" width="15.4" height="15.4"/>
		</g>
	</g>
	<g>
		<g>
			<rect x="238.4" y="338.7" width="15.4" height="15.4"/>
		</g>
	</g>
	<g>
		<g>
			<rect x="169" y="346.4" width="15.4" height="15.4"/>
		</g>
	</g>
	<g>
		<g>
			<path d="M477.6,115H215.3c-4.3,0-7.7,3.4-7.7,7.7v30.9c0,4.3,3.5,7.7,7.7,7.7h262.3c4.3,0,7.7-3.4,7.7-7.7v-30.9
				C485.3,118.5,481.8,115,477.6,115z M469.9,145.9H223v-15.4h246.9V145.9z"/>
		</g>
	</g>
	<g>
		<g>
			<path d="M276.8,121.1l-23.1-108c-0.9-4.2-5-6.8-9.2-5.9c-4.2,0.9-6.8,5-5.9,9.2l23.1,108c0.8,3.6,4,6.1,7.5,6.1
				c0.5,0,1.1-0.1,1.6-0.2C275.1,129.4,277.7,125.3,276.8,121.1z"/>
		</g>
	</g>
</g>
</svg>
