<?xml version="1.0" encoding="utf-8"?>
<!-- Generator: Adobe Illustrator 22.0.1, SVG Export Plug-In . SVG Version: 6.00 Build 0)  -->
<svg version="1.1" id="Layer_1" xmlns="http://www.w3.org/2000/svg" xmlns:xlink="http://www.w3.org/1999/xlink" x="0px" y="0px"
	 viewBox="0 0 500 500" style="enable-background:new 0 0 500 500;" xml:space="preserve">
<g>
	<g>
		<g>
			<path d="M493.7,180.9l-79.4-79.4c-1.1-1.1-2.6-1.9-4.2-2.2l-87.3-15.9c-4.3-0.8-8.4,2.1-9.2,6.4c-0.1,0.5-0.1,0.9-0.1,1.4
				c0,2.5-0.2,5-0.7,7.5l-54.9-13.7v-2.5c21.5-4.4,35.3-25.3,30.9-46.8S263.5,0.4,242.1,4.8c-18.5,3.8-31.7,20-31.7,38.9h15.9
				c0-13.1,10.7-23.8,23.8-23.8s23.8,10.7,23.8,23.8S263.2,67.5,250,67.5c-4.4,0-7.9,3.6-7.9,7.9v9.7l-54.9,13.7
				c-0.4-2.5-0.7-5-0.7-7.5c0-2.4-1-4.6-2.8-6.1c-1.8-1.5-4.2-2.2-6.5-1.7L89.9,99.4c-1.6,0.3-3,1.1-4.2,2.2L6.3,180.9
				c-3.1,3.1-3.1,8.1,0,11.2l63.5,63.5c3.1,3.1,8.1,3.1,11.2,0l18.2-18.2v52.3H43.7C21.8,289.6,4.1,307.3,4,329.1
				c0,12.6,5.9,24.5,16.1,32C2.6,373.9-1.2,398.5,11.6,416c2.4,3.3,5.3,6.2,8.5,8.5c-17.6,12.9-21.4,37.7-8.4,55.3
				c7.5,10.2,19.4,16.1,32,16.1h285.7c2.1,0,4.1-0.8,5.6-2.3l63.5-63.5c1.5-1.5,2.3-3.5,2.3-5.6h0.1V237.4l18.2,18.2
				c3.1,3.1,8.1,3.1,11.2,0l63.5-63.5C496.8,189,496.8,184,493.7,180.9z M250,99.5l57.7,14.4c-12,20.4-34.1,32.6-57.7,32
				c-23.6,0.7-45.7-11.6-57.7-32L250,99.5z M19.9,329.4c0-13.1,10.7-23.8,23.8-23.8h174.6c13.1,0,23.8,10.7,23.8,23.8
				s-10.7,23.8-23.8,23.8H43.7C30.5,353.2,19.9,342.5,19.9,329.4z M19.9,392.8c0-13.1,10.7-23.8,23.8-23.8h174.6
				c13.1,0,23.8,10.7,23.8,23.8s-10.7,23.8-23.8,23.8H43.7C30.5,416.6,19.9,406,19.9,392.8z M218.3,480.1h-15.9H43.7
				c-13.1,0-23.8-10.7-23.8-23.8s10.7-23.8,23.8-23.8h174.6c13.1,0,23.8,10.7,23.8,23.8S231.4,480.1,218.3,480.1z M337.3,468.9
				v-36.4h36.4L337.3,468.9z M424.6,238.8l-49.9-49.9l-11.2,11.2l21.5,21.5v195.1h-55.5c-4.4,0-7.9,3.6-7.9,7.9v55.5h-71.6
				c13.2-17.1,10-41.7-7.1-54.9c-0.3-0.2-0.6-0.4-0.9-0.7c17.5-12.8,21.4-37.4,8.5-54.9c-2.4-3.3-5.3-6.2-8.5-8.5
				c17.6-12.9,21.4-37.7,8.4-55.3c-7.5-10.2-19.4-16.2-32-16.1H115.1v-68.1l21.5-21.5l-11.2-11.2l-49.9,49.9l-52.3-52.3l72-72
				l76.2-13.8c5.2,34.4,38.5,61,78.7,61s73.5-26.6,78.7-61l76.2,13.8l72,72L424.6,238.8z"/>
			<rect x="35.7" y="321.4" width="190.5" height="15.9"/>
			<rect x="35.7" y="384.9" width="182.5" height="15.9"/>
			<rect x="35.7" y="448.4" width="182.5" height="15.9"/>
		</g>
	</g>
</g>
</svg>
