<svg xmlns="http://www.w3.org/2000/svg" xmlns:xlink="http://www.w3.org/1999/xlink" width="24" height="24" viewBox="0 0 24 24">
  <defs>
    <linearGradient id="linear-gradient" x1="0.084" y1="0.916" x2="0.916" y2="0.084" gradientUnits="objectBoundingBox">
      <stop offset="0" stop-color="#ffd600"/>
      <stop offset="0.5" stop-color="#ff0100"/>
      <stop offset="1" stop-color="#d800b9"/>
    </linearGradient>
    <linearGradient id="linear-gradient-2" x1="0.146" y1="0.854" x2="0.854" y2="0.146" gradientUnits="objectBoundingBox">
      <stop offset="0" stop-color="#ff6400"/>
      <stop offset="0.5" stop-color="#ff0100"/>
      <stop offset="1" stop-color="#fd0056"/>
    </linearGradient>
    <linearGradient id="linear-gradient-3" x1="0.146" y1="0.854" x2="0.854" y2="0.146" gradientUnits="objectBoundingBox">
      <stop offset="0" stop-color="#f30072"/>
      <stop offset="1" stop-color="#e50097"/>
    </linearGradient>
  </defs>
  <g id="instagram-t" transform="translate(0 0)">
    <path id="Path_120" data-name="Path 120" d="M23.928,7.052a8.81,8.81,0,0,0-.558-2.913,5.881,5.881,0,0,0-1.384-2.125A5.883,5.883,0,0,0,19.86.63,8.808,8.808,0,0,0,16.947.072C15.668.014,15.259,0,12,0S8.332.014,7.052.072A8.811,8.811,0,0,0,4.139.63,5.881,5.881,0,0,0,2.014,2.014,5.882,5.882,0,0,0,.629,4.139,8.809,8.809,0,0,0,.072,7.052C.014,8.332,0,8.741,0,12s.014,3.668.073,4.948A8.808,8.808,0,0,0,.63,19.86a5.881,5.881,0,0,0,1.384,2.125A5.88,5.88,0,0,0,4.14,23.37a8.805,8.805,0,0,0,2.913.558C8.332,23.986,8.741,24,12,24s3.668-.014,4.948-.072a8.806,8.806,0,0,0,2.913-.558A6.135,6.135,0,0,0,23.37,19.86a8.807,8.807,0,0,0,.558-2.913C23.986,15.667,24,15.259,24,12s-.014-3.668-.072-4.948Zm-2.16,9.8a6.639,6.639,0,0,1-.413,2.228,3.974,3.974,0,0,1-2.277,2.277,6.639,6.639,0,0,1-2.228.413c-1.265.058-1.645.07-4.849.07s-3.584-.012-4.849-.07a6.642,6.642,0,0,1-2.228-.413,3.719,3.719,0,0,1-1.38-.9,3.717,3.717,0,0,1-.9-1.38,6.639,6.639,0,0,1-.413-2.228c-.058-1.265-.07-1.645-.07-4.849s.012-3.584.07-4.849a6.644,6.644,0,0,1,.413-2.228,3.72,3.72,0,0,1,.9-1.38,3.715,3.715,0,0,1,1.38-.9,6.638,6.638,0,0,1,2.228-.413C8.416,2.174,8.8,2.162,12,2.162h0c3.2,0,3.584.012,4.849.07a6.641,6.641,0,0,1,2.228.413,3.721,3.721,0,0,1,1.38.9,3.715,3.715,0,0,1,.9,1.38,6.633,6.633,0,0,1,.413,2.228c.058,1.265.07,1.645.07,4.849s-.012,3.584-.07,4.849Zm0,0" fill="url(#linear-gradient)"/>
    <path id="Path_121" data-name="Path 121" d="M130.7,124.539a6.162,6.162,0,1,0,6.162,6.162A6.162,6.162,0,0,0,130.7,124.539Zm0,10.162a4,4,0,1,1,4-4A4,4,0,0,1,130.7,134.7Zm0,0" transform="translate(-118.701 -118.701)" fill="url(#linear-gradient-2)"/>
    <path id="Path_122" data-name="Path 122" d="M364.81,90.065a1.44,1.44,0,1,1-1.44-1.44A1.44,1.44,0,0,1,364.81,90.065Zm0,0" transform="translate(-344.964 -84.471)" fill="url(#linear-gradient-3)"/>
  </g>
</svg>
