<svg xmlns="http://www.w3.org/2000/svg" width="24" height="24" viewBox="0 0 24 24">
  <path id="linkedin" d="M21.829,0H2.171A2.171,2.171,0,0,0,0,2.171V21.829A2.171,2.171,0,0,0,2.171,24H21.829A2.171,2.171,0,0,0,24,21.829V2.171A2.171,2.171,0,0,0,21.829,0ZM7.427,20.723a.632.632,0,0,1-.632.632H4.105a.632.632,0,0,1-.632-.632V9.449a.632.632,0,0,1,.632-.632H6.795a.632.632,0,0,1,.632.632ZM5.45,7.755A2.555,2.555,0,1,1,8.005,5.2,2.555,2.555,0,0,1,5.45,7.755ZM21.481,20.774a.581.581,0,0,1-.581.581H18.014a.581.581,0,0,1-.581-.581V15.486c0-.789.231-3.457-2.062-3.457-1.779,0-2.139,1.826-2.212,2.646v6.1a.581.581,0,0,1-.581.581H9.788a.581.581,0,0,1-.581-.581V9.4a.581.581,0,0,1,.581-.581h2.791a.581.581,0,0,1,.581.581v.984a3.962,3.962,0,0,1,3.726-1.754c4.621,0,4.595,4.317,4.595,6.689v5.456Z" fill="#0077b7"/>
</svg>
