<svg id="twitter" xmlns="http://www.w3.org/2000/svg" width="24" height="24" viewBox="0 0 24 24">
  <rect id="Rectangle_213" data-name="Rectangle 213" width="24" height="24" fill="#50abf1"/>
  <path id="Path_119" data-name="Path 119" d="M60.359,108.774a10.332,10.332,0,0,0,15.854-8.732q0-.214-.008-.425A8.119,8.119,0,0,0,78,97.774a8.38,8.38,0,0,1-2.051.532h-.006l.005,0a3.841,3.841,0,0,0,1.577-2.012,12.586,12.586,0,0,1-1.76.734c-.17.056-.348.112-.531.163a3.625,3.625,0,0,0-6.178,3.3,10.917,10.917,0,0,1-7.441-3.761s-1.733,2.365,1.033,4.8a3.725,3.725,0,0,1-1.566-.467,3.445,3.445,0,0,0,2.865,3.6,3.317,3.317,0,0,1-1.6.067,3.574,3.574,0,0,0,3.332,2.532,6.963,6.963,0,0,1-5.323,1.521Z" transform="translate(-57.179 -90.983)" fill="#fff"/>
</svg>
