<svg xmlns="http://www.w3.org/2000/svg" width="52" height="38.367" viewBox="0 0 52 38.367">
  <g id="youtube" transform="translate(0 -80)">
    <path id="Path_102" data-name="Path 102" d="M49.79,83.7c-1.41-2.693-2.941-3.188-6.058-3.376C40.618,80.094,32.789,80,26.006,80s-14.628.094-17.738.317C5.158,80.509,3.624,81,2.2,83.7.747,86.386,0,91.018,0,99.173V99.2c0,8.12.747,12.787,2.2,15.448,1.424,2.693,2.954,3.181,6.064,3.408,3.113.2,10.946.31,17.742.31s14.612-.115,17.729-.307c3.117-.227,4.647-.715,6.058-3.408C51.259,111.991,52,107.324,52,99.2v-.028C52,91.018,51.259,86.386,49.79,83.7Z" transform="translate(0)" fill="#f44336"/>
    <path id="Path_103" data-name="Path 103" d="M192,180.871V160l16.272,10.435Z" transform="translate(-172.512 -71.252)" fill="#fafafa"/>
  </g>
</svg>
