<svg width="1480" height="500" viewBox="0 0 1480 500" xmlns="http://www.w3.org/2000/svg" xmlns:sketch="http://www.bohemiancoding.com/sketch/ns"><title>button_appstore_apple</title><desc>Created with Sketch.</desc><g sketch:type="MSLayerGroup" transform="translate(-1 -580)" fill="none"><rect stroke-opacity=".2" stroke="#000" stroke-width="4" fill="#fff" sketch:type="MSShapeGroup" x="1" y="580" width="1480" height="500" rx="60"/><path d="M272.377 822.554c-.322-35.765 29.285-53.165 30.639-53.975-16.767-24.447-42.756-27.787-51.889-28.053-21.828-2.297-43.001 13.061-54.12 13.061-11.341 0-28.464-12.839-46.918-12.462-23.747.366-45.963 14.115-58.148 35.466-25.146 43.533-6.392 107.507 17.7 142.695 12.051 17.245 26.133 36.476 44.565 35.799 18.032-.732 24.768-11.496 46.529-11.496 21.561 0 27.887 11.496 46.685 11.053 19.353-.289 31.537-17.3 43.167-34.7 13.927-19.73 19.519-39.205 19.741-40.204-.444-.144-37.574-14.315-37.951-57.182zm-35.51-105.177c9.699-12.129 16.335-28.63 14.493-45.375-14.038.621-31.593 9.71-41.702 21.572-8.944 10.453-16.934 27.587-14.87 43.7 15.769 1.176 31.959-7.956 42.08-19.897z" fill-opacity=".5" fill="#000" sketch:type="MSShapeGroup"/><g fill-opacity=".5" fill="#000" sketch:type="MSShapeGroup"><path d="M546.787 957.799h-25.628l-14.039-44.189h-48.796l-13.373 44.189h-24.951l48.356-150.438h29.86l48.571 150.438zm-43.899-62.728l-12.696-39.271c-1.343-4.024-3.871-13.475-7.572-28.351h-.451c-1.49 6.398-3.871 15.849-7.132 28.351l-12.481 39.271h40.333zm168.011 7.156c0 18.449-4.999 33.031-15.009 43.736-8.96 9.53-20.099 14.289-33.381 14.289-14.343 0-24.658-5.121-30.921-15.397v56.917h-24.06v-116.796c0-11.587-.305-23.468-.892-35.654h21.159l1.343 17.205h.451c8.024-12.966 20.2-19.443 36.541-19.443 12.775 0 23.439 5.053 31.97 15.17 8.52 10.14 12.797 23.457 12.797 39.972zm-24.511.882c0-10.558-2.37-19.263-7.132-26.113-5.202-7.133-12.188-10.717-20.945-10.717-5.936 0-11.33 1.99-16.149 5.923-4.83 3.945-7.99 9.111-9.468 15.521-.745 2.973-1.117 5.403-1.117 7.325v18.11c0 7.868 2.415 14.526 7.245 19.975 4.83 5.426 11.104 8.15 18.823 8.15 9.062 0 16.115-3.516 21.159-10.49 5.056-6.997 7.584-16.222 7.584-27.684zm149.064-.882c0 18.449-4.999 33.031-15.009 43.736-8.972 9.53-20.099 14.289-33.392 14.289-14.332 0-24.646-5.121-30.921-15.397v56.917h-24.06v-116.796c0-11.587-.305-23.468-.892-35.654h21.159l1.343 17.205h.451c8.012-12.966 20.189-19.443 36.541-19.443 12.763 0 23.439 5.053 31.982 15.17 8.509 10.14 12.797 23.457 12.797 39.972zm-24.522.882c0-10.558-2.381-19.263-7.143-26.113-5.191-7.133-12.165-10.717-20.922-10.717-5.936 0-11.33 1.99-16.171 5.923-4.819 3.945-7.978 9.111-9.457 15.521-.734 2.973-1.129 5.403-1.129 7.325v18.11c0 7.868 2.426 14.526 7.234 19.975 4.83 5.415 11.104 8.15 18.846 8.15 9.073 0 16.126-3.516 21.159-10.49 5.056-6.997 7.584-16.222 7.584-27.684zm163.779 12.503c0 12.797-4.458 23.208-13.35 31.245-9.773 8.772-23.416 13.17-40.908 13.17-16.16 0-29.115-3.12-38.888-9.371l5.564-20.088c10.551 6.251 22.141 9.383 34.758 9.383 9.073 0 16.126-2.057 21.159-6.138 5.056-4.103 7.595-9.563 7.595-16.391 0-6.116-2.099-11.248-6.252-15.419-4.164-4.149-11.048-8.037-20.708-11.587-26.294-9.823-39.452-24.203-39.452-43.092 0-12.344 4.649-22.45 13.914-30.352 9.276-7.89 21.577-11.836 36.879-11.836 13.666 0 25.053 2.385 34.092 7.144l-6.037 19.647c-8.509-4.612-18.112-6.918-28.856-6.918-8.486 0-15.156 2.091-19.907 6.251-4.006 3.719-6.049 8.252-6.049 13.633 0 5.935 2.313 10.863 6.929 14.718 3.995 3.572 11.285 7.45 21.825 11.61 12.933 5.223 22.423 11.304 28.517 18.29 6.128 6.986 9.175 15.702 9.175 26.102zm79.751-48.202h-26.52v52.667c0 13.396 4.672 20.077 14.039 20.077 4.3 0 7.866-.362 10.687-1.119l.666 18.302c-4.74 1.775-10.98 2.668-18.699 2.668-9.513 0-16.928-2.917-22.299-8.716-5.349-5.81-8.024-15.543-8.024-29.244v-54.679h-15.788v-18.087h15.788v-19.862l23.631-7.144v27.006h26.52v18.132zm119.418 35.258c0 16.674-4.751 30.363-14.264 41.069-9.942 11.01-23.168 16.516-39.656 16.516-15.912 0-28.562-5.279-37.997-15.837-9.434-10.558-14.151-23.875-14.151-39.938 0-16.81 4.886-30.578 14.592-41.283 9.728-10.705 22.841-16.075 39.328-16.075 15.901 0 28.653 5.302 38.324 15.849 9.231 10.253 13.824 23.468 13.824 39.701zm-24.94.554c0-9.937-2.144-18.46-6.444-25.593-5.044-8.614-12.278-12.91-21.622-12.91-9.626 0-17.04 4.296-22.062 12.91-4.322 7.133-6.455 15.803-6.455 26.045 0 9.948 2.133 18.494 6.455 25.593 5.202 8.625 12.459 12.932 21.87 12.932 9.186 0 16.397-4.409 21.622-13.136 4.412-7.303 6.636-15.883 6.636-25.842zm103.179-32.703c-2.381-.441-4.932-.656-7.584-.656-8.464 0-15.009 3.177-19.613 9.597-4.006 5.652-6.004 12.797-6.004 21.422v56.917h-24.06v-74.315c0-12.491-.237-23.897-.7-34.15h20.956l.88 20.755h.666c2.55-7.133 6.545-12.887 12.03-17.183 5.372-3.889 11.15-5.822 17.39-5.822 2.223 0 4.232.17 6.015.441l.023 22.993zm107.603 27.91c0 4.318-.282 7.958-.88 10.931h-72.168c.26 10.717 3.769 18.923 10.461 24.576 6.083 5.042 13.96 7.574 23.608 7.574 10.687 0 20.437-1.696 29.206-5.132l3.769 16.73c-10.247 4.465-22.356 6.703-36.304 6.703-16.792 0-29.973-4.951-39.565-14.831-9.558-9.891-14.366-23.197-14.366-39.836 0-16.346 4.446-29.968 13.384-40.831 9.344-11.598 21.972-17.397 37.861-17.397 15.607 0 27.423 5.799 35.435 17.397 6.365 9.19 9.558 20.585 9.558 34.116zm-22.942-6.251c.169-7.156-1.411-13.305-4.672-18.528-4.164-6.715-10.574-10.061-19.162-10.061-7.877 0-14.276 3.267-19.151 9.823-4.006 5.211-6.387 11.485-7.121 18.743l50.105.023z"/><path d="M482.327 753.518h-12.605l-6.895-21.716h-23.981l-6.579 21.716h-12.267l23.766-73.942h14.671l23.89 73.942zm-21.577-30.827l-6.241-19.308c-.655-1.978-1.862-6.579-3.724-13.927h-.226c-.767 3.177-1.862 7.789-3.51 13.927l-6.128 19.308h19.828zm81.004-22.484l-20.155 53.311h-11.499l-19.5-53.311h12.707l9.096 28.193c1.535 4.714 2.844 9.213 3.826 13.486h.327c.88-3.832 2.189-8.331 3.826-13.486l8.983-28.193h12.391zm42.906 53.311l-.88-6.138h-.327c-3.611 4.94-8.87 7.348-15.551 7.348-9.525 0-16.318-6.692-16.318-15.69 0-13.158 11.387-19.963 31.101-19.963v-.983c0-7.02-3.724-10.536-11.059-10.536-5.259 0-9.863 1.323-13.903 3.957l-2.404-7.789c4.932-3.075 11.059-4.612 18.293-4.612 13.903 0 20.922 7.348 20.922 22.055v19.636c0 5.381.226 9.552.767 12.729l-10.642-.011zm-1.648-26.554c-13.147 0-19.715 3.188-19.715 10.75 0 5.596 3.397 8.331 8.103 8.331 6.026 0 11.612-4.601 11.612-10.852v-8.23zm37.861-35.541c-3.938 0-7.008-3.075-7.008-7.133s3.171-7.02 7.234-7.02c4.051 0 7.335 2.962 7.222 7.02 0 4.284-3.058 7.133-7.448 7.133zm-5.688 8.783h11.827v53.311h-11.827v-53.311zm32.839-24.463h11.827v77.774h-11.827v-77.774zm62.09 77.774l-.892-6.138h-.316c-3.611 4.94-8.87 7.348-15.551 7.348-9.525 0-16.318-6.692-16.318-15.69 0-13.158 11.387-19.963 31.101-19.963v-.983c0-7.02-3.724-10.536-11.059-10.536-5.259 0-9.863 1.323-13.903 3.957l-2.415-7.8c4.932-3.075 11.059-4.612 18.293-4.612 13.903 0 20.934 7.348 20.934 22.055v19.636c0 5.381.226 9.552.745 12.729h-10.619zm-1.648-26.554c-13.147 0-19.715 3.188-19.715 10.75 0 5.596 3.397 8.331 8.103 8.331 6.026 0 11.612-4.601 11.612-10.852v-8.23zm59.427 27.763c-7.55 0-13.124-3.188-16.747-9.439h-.226l-.677 8.23h-10.066c.316-4.273.429-9.111.429-14.368v-63.406h11.849v32.263h.214c3.51-5.923 9.197-8.885 16.973-8.885 12.82 0 21.803 10.977 21.803 26.983 0 16.55-9.976 28.623-23.552 28.623zm-2.404-46.303c-6.805 0-13.034 5.923-13.034 14.153v9.326c0 7.348 5.597 13.384 12.82 13.384 8.859 0 14.14-7.235 14.14-18.754-.011-10.75-5.496-18.11-13.926-18.11zm43.459-32.681h11.815v77.774h-11.815v-77.774zm76.185 53.967h-35.503c.237 10.095 6.895 15.792 16.747 15.792 5.27 0 10.089-.882 14.355-2.521l1.839 8.23c-5.033 2.193-10.946 3.29-17.842 3.29-16.657 0-26.508-10.536-26.508-26.87 0-16.346 10.089-28.634 25.188-28.634 13.565 0 22.13 10.095 22.13 25.344.034 2.08-.068 3.945-.406 5.37zm-10.834-8.444c0-8.23-4.175-14.04-11.736-14.04-6.794 0-12.143 5.923-12.933 14.04h24.669zm82.516 33.461c-15.551 0-25.628-11.632-25.628-27.424 0-16.459 10.292-28.193 26.52-28.193 15.314 0 25.628 11.078 25.628 27.323 0 16.663-10.63 28.295-26.52 28.295zm.451-46.958c-8.543 0-14.016 8.003-14.016 19.195 0 10.977 5.586 18.98 13.903 18.98s13.903-8.557 13.903-19.206c0-10.852-5.473-18.969-13.79-18.969zm89.648 45.749h-11.804v-30.612c0-9.428-3.622-14.153-10.743-14.153-7.008 0-11.838 6.037-11.838 13.057v31.709h-11.804v-38.073c0-4.714-.135-9.767-.451-15.25h10.405l.553 8.23h.339c3.149-5.697 9.626-9.326 16.86-9.326 11.15 0 18.485 8.557 18.485 22.484v31.935zm77.381-44.426h-13.012v25.887c0 6.59 2.291 9.88 6.884 9.88 2.076 0 3.848-.226 5.259-.554l.327 8.998c-2.302.882-5.383 1.323-9.186 1.323-9.333 0-14.885-5.155-14.885-18.652v-26.882h-7.753v-8.885h7.753v-9.767l11.601-3.516v13.271h13.012v8.897zm62.632 44.426h-11.838v-30.386c0-9.541-3.622-14.368-10.732-14.368-6.128 0-11.815 4.171-11.815 12.616v32.138h-11.838v-77.774h11.838v32.025h.226c3.713-5.81 9.096-8.67 15.991-8.67 11.274 0 18.169 8.772 18.169 22.71v31.709zm60.431-23.807h-35.491c.226 10.095 6.884 15.792 16.747 15.792 5.281 0 10.089-.882 14.332-2.521l1.851 8.23c-5.022 2.193-10.946 3.29-17.853 3.29-16.645 0-26.497-10.536-26.497-26.87 0-16.346 10.078-28.634 25.177-28.634 13.576 0 22.13 10.095 22.13 25.344.045 2.08-.068 3.945-.395 5.37zm-10.845-8.444c0-8.23-4.153-14.04-11.714-14.04-6.794 0-12.154 5.923-12.933 14.04h24.646z"/></g></g></svg>