<svg id="Capa_1" enable-background="new 0 0 512 512" height="512" viewBox="0 0 512 512" width="512" xmlns="http://www.w3.org/2000/svg"><g><g><path d="m256 303.937c-7.468 0-13.544 6.077-13.544 13.546s6.076 13.546 13.544 13.546c7.469 0 13.545-6.077 13.545-13.546s-6.076-13.546-13.545-13.546z"/><path d="m256 243.932c-40.553 0-73.545 32.995-73.545 73.551 0 27.975 41.39 85.493 73.542 122.927 32.153-37.454 73.548-94.989 73.548-122.927 0-40.556-32.992-73.551-73.545-73.551zm0 117.099c-24.011 0-43.544-19.535-43.544-43.548s19.534-43.548 43.544-43.548 43.545 19.535 43.545 43.548-19.534 43.548-43.545 43.548z"/></g><g><path d="m498.158 483.156h-16.439v-309.138c-6.699 1.78-13.731 2.744-20.989 2.744-19.385 0-37.208-6.777-51.183-18.064-13.975 11.287-31.798 18.064-51.183 18.064s-37.208-6.777-51.183-18.064c-13.975 11.287-31.798 18.064-51.183 18.064s-37.208-6.777-51.183-18.064c-13.975 11.287-31.798 18.064-51.183 18.064s-37.208-6.777-51.183-18.064c-13.975 11.287-31.798 18.064-51.183 18.064-7.257 0-14.289-.964-20.988-2.744v309.137h-16.436c-7.645.001-13.842 6.198-13.842 13.844 0 8.285 6.716 15.001 15 15.001h482c8.284 0 15-6.716 15-15.001 0-7.646-6.197-13.843-13.842-13.843zm-185.776-65.731c-22.366 30.601-44.392 54.733-45.318 55.745-2.841 3.104-6.855 4.872-11.064 4.872-4.208 0-8.223-1.768-11.064-4.872-.927-1.012-22.951-25.144-45.318-55.745-31.735-43.419-47.163-76.111-47.163-99.942 0-57.1 46.45-103.553 103.545-103.553s103.545 46.454 103.545 103.553c0 23.831-15.427 56.522-47.163 99.942z"/><path d="m505.736 72.155-32.066-63.884c-2.545-5.07-7.733-8.271-13.406-8.271h-406.712c-5.547 0-10.641 3.061-13.244 7.959l-34.294 64.508s-5.927 15.236-5.927 23.77c0 27.903 22.915 50.523 51.183 50.523 28.267 0 51.183-22.62 51.183-50.523 0 27.903 22.915 50.523 51.183 50.523 28.267 0 51.183-22.62 51.183-50.523 0 27.903 22.915 50.523 51.183 50.523s51.183-22.62 51.183-50.523c0 27.903 22.915 50.523 51.183 50.523s51.183-22.62 51.183-50.523c0 27.903 22.915 50.523 51.183 50.523 28.267 0 51.183-22.62 51.183-50.523-.003-8.72-2.241-16.924-6.181-24.082z"/></g></g></svg>