<svg id="Layer_1" data-name="Layer 1" xmlns="http://www.w3.org/2000/svg" viewBox="0 0 1044.01 125.21"><defs><style>.cls-1{fill:#ec1c24;}.cls-2{fill:none;stroke:#ec1c24;stroke-width:0.5px;}</style></defs><title>Logo-with-text</title><path class="cls-1" d="M511,1228.79H509.9a61.76,61.76,0,0,0-8.51.74h18.15A61.83,61.83,0,0,0,511,1228.79Z" transform="translate(-441.48 -1228.79)"/><path class="cls-1" d="M519.54,1229.85H501.39a47.77,47.77,0,0,0-5.82,1.28h29.79A48.82,48.82,0,0,0,519.54,1229.85Z" transform="translate(-441.48 -1228.79)"/><path class="cls-1" d="M519.78,1339.05H501.63a61.7,61.7,0,0,0,8.52.75h1.12A62,62,0,0,0,519.78,1339.05Z" transform="translate(-441.48 -1228.79)"/><path class="cls-1" d="M564.68,1297.65h-108c.49,1.85,1.05,3.68,1.69,5.44H563C563.63,1301.33,564.2,1299.5,564.68,1297.65Z" transform="translate(-441.48 -1228.79)"/><path class="cls-1" d="M562.19,1305.09h-103c.66,1.58,1.36,3.11,2.16,4.58H560A48,48,0,0,0,562.19,1305.09Z" transform="translate(-441.48 -1228.79)"/><path class="cls-1" d="M558.95,1311.67H462.48c.79,1.33,1.64,2.69,2.55,4h91.34C557.29,1314.37,558.13,1313,558.95,1311.67Z" transform="translate(-441.48 -1228.79)"/><path class="cls-1" d="M552.08,1321.11c1.15-1.28,2.24-2.61,3.3-4H466c1,1.39,2.14,2.72,3.3,4Z" transform="translate(-441.48 -1228.79)"/><path class="cls-1" d="M550.5,1322.76H470.92c1.09,1.13,2.25,2.23,3.46,3.27H547C548.23,1325,549.39,1323.89,550.5,1322.76Z" transform="translate(-441.48 -1228.79)"/><path class="cls-1" d="M476.69,1327.9c.83.63,1.67,1.25,2.51,1.85h63c.83-.59,1.68-1.22,2.49-1.85Z" transform="translate(-441.48 -1228.79)"/><path class="cls-1" d="M482.15,1331.63c1.08.62,2.18,1.23,3.32,1.81h50.46c1.13-.57,2.24-1.18,3.32-1.81Z" transform="translate(-441.48 -1228.79)"/><path class="cls-1" d="M532.73,1335H488.68c1.48.64,3,1.19,4.52,1.69h35C529.73,1336.17,531.26,1335.62,532.73,1335Z" transform="translate(-441.48 -1228.79)"/><path class="cls-1" d="M519.78,1338.73a55.58,55.58,0,0,0,5.83-1.27h-29.8a54.89,54.89,0,0,0,5.82,1.27Z" transform="translate(-441.48 -1228.79)"/><path class="cls-1" d="M562.73,1265.48H458.2c-.66,1.76-1.23,3.57-1.72,5.43h108A46.74,46.74,0,0,0,562.73,1265.48Z" transform="translate(-441.48 -1228.79)"/><path class="cls-1" d="M559.79,1258.92H461.12a47.17,47.17,0,0,0-2.13,4.54h103A48.32,48.32,0,0,0,559.79,1258.92Z" transform="translate(-441.48 -1228.79)"/><path class="cls-1" d="M556.16,1252.91H464.79c-.9,1.31-1.75,2.61-2.55,4h96.45C557.89,1255.52,557.06,1254.21,556.16,1252.91Z" transform="translate(-441.48 -1228.79)"/><path class="cls-1" d="M551.82,1247.47H469.11a52,52,0,0,0-3.31,4h89.31A46.9,46.9,0,0,0,551.82,1247.47Z" transform="translate(-441.48 -1228.79)"/><path class="cls-1" d="M546.78,1242.57H474.13c-1.19,1-2.35,2.11-3.47,3.26h79.59C549.15,1244.68,548,1243.61,546.78,1242.57Z" transform="translate(-441.48 -1228.79)"/><path class="cls-1" d="M542,1238.84H479c-.85.58-1.67,1.2-2.49,1.82h68C543.64,1240,542.82,1239.43,542,1238.84Z" transform="translate(-441.48 -1228.79)"/><path class="cls-1" d="M535.71,1235.13H485.23c-1.13.59-2.24,1.17-3.33,1.84H539C537.95,1236.3,536.83,1235.72,535.71,1235.13Z" transform="translate(-441.48 -1228.79)"/><path class="cls-1" d="M528,1231.91H493c-1.54.49-3.05,1.09-4.52,1.7H532.5C531,1233,529.5,1232.4,528,1231.91Z" transform="translate(-441.48 -1228.79)"/><path class="cls-1" d="M443.57,1288.79l5-.19c.89,0,1.09.08,1.16.87l.81,0-.19-4.71h-.81c0,.86-.18.92-1.08,1l-5,.16c-.91.07-1.11,0-1.15-.88l-.83,0,.18,4.75.84,0C442.47,1288.93,442.68,1288.83,443.57,1288.79Z" transform="translate(-441.48 -1228.79)"/><path class="cls-1" d="M450.84,1298.06l.84-.11-.41-2.73-.83.08c.12.71-.06.91-.95,1l-3,.45h0l4.46-3.91-.5-3.24-.81.15c.1.7,0,.85-.93,1l-5,.78c-.88.13-1.1,0-1.21-.7l-.81.15.4,2.7.81-.11c-.09-.73.08-.87,1-1l4-.61h0l-5.5,4.67.26,1.8,7-1.06C450.51,1297.27,450.75,1297.44,450.84,1298.06Z" transform="translate(-441.48 -1228.79)"/><path class="cls-1" d="M450.51,1309.28a6.36,6.36,0,0,0,.7-2.37,5.75,5.75,0,0,1,.45-1.59.8.8,0,0,1,.48-.41.66.66,0,0,1,.58,0,1.09,1.09,0,0,1,.52.68c.31.86,0,1.37-1.21,2.08l.53.93a17.59,17.59,0,0,1,2-1,6.21,6.21,0,0,0-.4-2.38,4.58,4.58,0,0,0-1.46-2.17,2.29,2.29,0,0,0-2.18-.29,2.84,2.84,0,0,0-1.26.89,5.84,5.84,0,0,0-.72,2.34,4.51,4.51,0,0,1-.44,1.53,1.14,1.14,0,0,1-.67.55.86.86,0,0,1-.73-.06,1.35,1.35,0,0,1-.56-.68c-.27-.78-.11-1.51,1.3-2.47l-.6-.91a20,20,0,0,1-2,1.12,7,7,0,0,0,.42,2.54,4.24,4.24,0,0,0,1.93,2.5,2.58,2.58,0,0,0,2.05.17A2.69,2.69,0,0,0,450.51,1309.28Z" transform="translate(-441.48 -1228.79)"/><path class="cls-1" d="M457.34,1314.44a3.56,3.56,0,0,0-.36-2.6,3.33,3.33,0,0,0-1.83-1.76,4.73,4.73,0,0,0-4,.48,5,5,0,0,0-2.73,2.74,3.39,3.39,0,0,0,.32,2.68h0a3.6,3.6,0,0,0,2,1.95,5,5,0,0,0,3.85-.59A4.8,4.8,0,0,0,457.34,1314.44Zm-7,1.42c-.41.05-.68,0-.8-.25s0-.43.3-.74a13.49,13.49,0,0,1,2.69-1.66,10.16,10.16,0,0,1,3.07-1.21c.34,0,.54,0,.64.23h0c.13.22.07.4-.16.68a9.58,9.58,0,0,1-2.81,1.72A12.66,12.66,0,0,1,450.34,1315.86Z" transform="translate(-441.48 -1228.79)"/><path class="cls-1" d="M461.46,1323c.74-.49,1-.53,1.35,0l.68-.46-1.47-2.12-.68.45c.33.51.3.73-.48,1.26l-3.21,2.23a2.82,2.82,0,0,1-1.31.56,1.47,1.47,0,0,1-1.21-.6,1.26,1.26,0,0,1-.2-1.1A2.6,2.6,0,0,1,456,1322l3.18-2.18c.79-.54,1-.57,1.34,0l.68-.46-2.56-3.72-.68.49c.42.59.3.82-.45,1.3l-3.2,2.21a3.06,3.06,0,0,0-1.54,2,4.34,4.34,0,0,0,1,2.85A2.93,2.93,0,0,0,456,1326a3.26,3.26,0,0,0,2.3-.7Z" transform="translate(-441.48 -1228.79)"/><path class="cls-1" d="M468.61,1329.31l.59-.56-1.88-2-.61.55c.48.52.45.77-.22,1.4l-2.25,2h0l1.5-5.72-2.22-2.4-.6.56c.48.54.48.73-.2,1.36l-3.68,3.4c-.68.59-.91.65-1.42.11l-.6.58,1.89,2,.61-.56c-.51-.56-.42-.79.21-1.37l3-2.74h0l-1.94,7,1.24,1.32,5.2-4.81C467.87,1328.82,468.15,1328.82,468.61,1329.31Z" transform="translate(-441.48 -1228.79)"/><path class="cls-1" d="M472.45,1331.38l-3.19-2.6-.52.63c.6.5.53.73,0,1.42l-3.17,3.83c-.55.69-.79.8-1.38.32l-.51.64,3.08,2.54a3.83,3.83,0,0,0,3.36,1,5.56,5.56,0,0,0,2.74-2A4.4,4.4,0,0,0,474,1334,3.72,3.72,0,0,0,472.45,1331.38Zm-.51,1.74a8.52,8.52,0,0,1-1.53,2.31,9.26,9.26,0,0,1-2,2c-.5.3-.82.3-1,.13l-.08-.07c-.21-.17-.2-.23.43-1l3.22-3.93c.6-.71.68-.73.86-.61l.11.1C472.12,1332.23,472.16,1332.59,471.94,1333.11Z" transform="translate(-441.48 -1228.79)"/><path class="cls-1" d="M478.52,1341.08a1.24,1.24,0,0,0-1.7.46,1.27,1.27,0,0,0,.46,1.74,1.29,1.29,0,0,0,1.7-.49,1.27,1.27,0,0,0-.47-1.71Z" transform="translate(-441.48 -1228.79)"/><path class="cls-1" d="M487.33,1347.83l1.84-4.63c.31-.81.48-1,1.26-.67l.3-.79-4.42-1.73-.3.78c.78.28.79.52.45,1.36l-1.82,4.63c-.33.83-.5,1-1.28.66l-.31.79,4.42,1.73.29-.75C487,1348.89,487,1348.66,487.33,1347.83Z" transform="translate(-441.48 -1228.79)"/><path class="cls-1" d="M496.09,1344.19c.65.17.77.43.55,1.29l-.81,2.94h0l-1.78-5.64-3.15-.88-.21.8c.7.19.79.36.55,1.25l-1.31,4.86c-.25.85-.42,1-1.11.85l-.21.8,2.65.73.22-.81c-.69-.18-.77-.41-.51-1.3l1-3.86h0l2,6.89,1.76.5,1.84-6.83c.23-.91.47-1.05,1.1-.85l.22-.81-2.67-.73Z" transform="translate(-441.48 -1228.79)"/><path class="cls-1" d="M502.83,1344.68l-.48,2.59,1.07.1c.36-1.57.52-1.62,1.21-1.6l.3,0-.41,5.92c-.06.9-.18,1.14-1,1.07l-.05.81,4.82.36.06-.86c-.87-.05-1-.25-.9-1.15l.42-6,.3,0c.67,0,.84.1,1,1.72l1,.07-.08-2.62Z" transform="translate(-441.48 -1228.79)"/><path class="cls-1" d="M514.58,1351.93l-.16-5c0-.9.06-1.11.88-1.11l0-.87-4.75.18,0,.84c.84,0,.94.15,1,1.09l.18,5c0,.88-.06,1.1-.89,1.1l0,.86,4.76-.17,0-.83C514.73,1353,514.62,1352.8,514.58,1351.93Z" transform="translate(-441.48 -1228.79)"/><path class="cls-1" d="M525.56,1350.5l-.79-4.84c-.13-1-.09-1.17.58-1.28l-.14-.82-3.35.54L521,1349l0,0-2.26-4.42-3.36.52.13.82c.68-.08.81.08.94,1l.78,4.91c.13.87.07,1.09-.56,1.21l.12.82,2.43-.4-.13-.8c-.56.07-.76-.09-.89-1l-.61-3.92h0l2.88,5.58.76-.1,1.07-6.11h.05l.6,3.77c.13.89.08,1.12-.67,1.22l.13.83,4.23-.66-.13-.83C525.85,1351.6,525.7,1351.42,525.56,1350.5Z" transform="translate(-441.48 -1228.79)"/><path class="cls-1" d="M533.15,1347.73c.13,1.33,0,1.53-.54,1.73l-1.05.31c-.21.06-.28.06-.42-.42l-.78-2.48.57-.17c.42-.14.59,0,.91,1l1-.32-1-3.22-1,.3c.27.88.21,1.17-.21,1.3l-.56.16-.71-2.28c-.1-.34-.1-.47.2-.54l.75-.24c.57-.19.75-.06,1.35,1l1-.31-1-2.07-6.37,2,.26.78c.76-.23,1-.07,1.22.8l1.48,4.72c.27.86.19,1.11-.58,1.34l.27.78,6.63-2.07-.38-2.43Z" transform="translate(-441.48 -1228.79)"/><path class="cls-1" d="M539.81,1342.78h0a1.25,1.25,0,0,0-.57,1.67,1.25,1.25,0,1,0,2.24-1.11A1.22,1.22,0,0,0,539.81,1342.78Z" transform="translate(-441.48 -1228.79)"/><path class="cls-1" d="M550.29,1339.19l-2.84-4.1c-.5-.74-.55-1,.14-1.42l-.47-.69-3.91,2.72.47.65c.69-.46.9-.34,1.4.37l2.84,4.11c.52.72.53,1-.13,1.42l.46.7,3.88-2.69-.45-.7C551,1340,550.81,1339.92,550.29,1339.19Z" transform="translate(-441.48 -1228.79)"/><path class="cls-1" d="M554.19,1328l-.54-.62-2.08,1.83.54.64c.53-.46.78-.42,1.37.25l2,2.3,0,0-5.7-1.67-2.44,2.14.56.64c.51-.48.71-.46,1.33.25l3.3,3.76c.6.67.63.92.1,1.41l.52.61,2.1-1.82-.56-.65c-.57.51-.77.4-1.36-.26l-2.65-3v0l6.89,2.12,1.37-1.17-4.66-5.35C553.69,1328.78,553.69,1328.5,554.19,1328Z" transform="translate(-441.48 -1228.79)"/><path class="cls-1" d="M559.64,1320.2l.66.5c.28-.36.49-.41,1,.24l2.54,3.39h0l-4.13-1.59c-.46-.16-.64-.36-.33-.79l-.66-.52-2.5,3.29.66.5c.22-.3.42-.33,1.1-.1l7.27,2.62,1.23-1.6-4.63-6.3c-.31-.45-.31-.68-.14-.9l-.49-.39-.19-.11Z" transform="translate(-441.48 -1228.79)"/><path class="cls-1" d="M568.81,1318.77l-4.22-2.63c-.76-.46-.9-.66-.46-1.36l-.71-.42-2.49,4,.07,0h0l.17.11.44.29c.44-.7.69-.68,1.45-.23l4.23,2.62c.77.47.89.67.45,1.36l.7.47L571,1319l-.71-.41C569.81,1319.26,569.57,1319.25,568.81,1318.77Z" transform="translate(-441.48 -1228.79)"/><path class="cls-1" d="M572.12,1310.7a2.38,2.38,0,0,0-1.65-.18,6.42,6.42,0,0,0-2.18,1.13,5.07,5.07,0,0,1-1.44.81,1,1,0,0,1-.62-.06.8.8,0,0,1-.41-.42,1.19,1.19,0,0,1,.11-.86c.41-.84,1-1,2.34-.6l.3-1a18.94,18.94,0,0,1-2.08-.71,6.45,6.45,0,0,0-1.43,1.93,4.53,4.53,0,0,0-.52,2.6,2.32,2.32,0,0,0,1.31,1.76,3,3,0,0,0,1.51.28,6.35,6.35,0,0,0,2.18-1.13,4.92,4.92,0,0,1,1.4-.77,1.1,1.1,0,0,1,.86.09.93.93,0,0,1,.48.55,1.12,1.12,0,0,1-.13.89c-.35.75-1,1.15-2.66.79l-.22,1.09a12.91,12.91,0,0,1,2.23.66,7.92,7.92,0,0,0,1.51-2.12,4.22,4.22,0,0,0,.44-3.08A2.55,2.55,0,0,0,572.12,1310.7Z" transform="translate(-441.48 -1228.79)"/><path class="cls-1" d="M574.44,1306.51l-4.65-1.7c-.84-.29-1-.49-.73-1.25l-.78-.29-1.61,4.45.78.31c.27-.79.51-.83,1.34-.49l4.67,1.71c.85.3,1,.46.73,1.27l.77.26,1.64-4.45-.8-.29C575.5,1306.8,575.29,1306.81,574.44,1306.51Z" transform="translate(-441.48 -1228.79)"/><path class="cls-1" d="M574.57,1296.66a4.81,4.81,0,0,0-4,.42,3.46,3.46,0,0,0-1.4,2.19,3.67,3.67,0,0,0,.23,2.58,6.17,6.17,0,0,0,7.17,1.89,3.44,3.44,0,0,0,1.51-2.24h0a3.44,3.44,0,0,0-.28-2.76A4.88,4.88,0,0,0,574.57,1296.66Zm2,5a12.63,12.63,0,0,1-3.12-.49,9.37,9.37,0,0,1-3.12-1.12c-.26-.2-.4-.34-.33-.57h0c.07-.24.24-.34.58-.4a9.08,9.08,0,0,1,3.26.49,14.32,14.32,0,0,1,3,1c.37.23.53.43.45.73S577,1301.62,576.57,1301.65Z" transform="translate(-441.48 -1228.79)"/><path class="cls-1" d="M579.91,1290.6l.19-1.77-7.05-.76c-.88-.07-1.07-.3-1-.94l-.82-.1-.3,2.75.84.09c.06-.67.28-.84,1.17-.75l3.07.34v0l-5.34,2.64-.33,3.24.83.09c.07-.72.22-.82,1.17-.74l5,.54c.91.11,1.09.25,1,1l.83.1.3-2.75-.82-.12c-.09.76-.31.84-1.2.76l-4-.44h0Z" transform="translate(-441.48 -1228.79)"/><path class="cls-1" d="M565.12,1295.75a55.19,55.19,0,0,0,1.31-12,56,56,0,0,0-1-10.58H456a56.32,56.32,0,0,0-1,10.58,53.19,53.19,0,0,0,1.34,12Zm-33.7-7.87a4.18,4.18,0,0,0,2.73-1.74,8.41,8.41,0,0,0,.78-2.83c0-.29-.78.09-1.39-.13a1.94,1.94,0,0,1-1-1.73,2.82,2.82,0,0,1,.32-1.65,2.57,2.57,0,0,1,1.95-1,2.39,2.39,0,0,1,2,1.34h9.72v3.16H545c-.72,0-1.15,1.67-.81,2.86a2.05,2.05,0,0,0,1.16,1.09,3.21,3.21,0,0,0,1.84.17,3.93,3.93,0,0,1,.79-1.52,3.08,3.08,0,0,1,1.81-1c.71-.18.54-.7-.27-.8s-1.82-1.89-.79-2.88a6.76,6.76,0,0,1,3.86-1.72,36.42,36.42,0,0,1,6.89-.24c.44,0,.17,1.39.17,1.79s0,.75-.51.75a13.12,13.12,0,0,0-2.45,0c-.74.1-1.34.47-1.34.82,0,.82,1.84.93,2.55.85.23,0,.17.36.17.7s.06.77-.31.77a8.55,8.55,0,0,0-2.69.78c-.69.64-1.13,1.12-.62,1.54a6.17,6.17,0,0,0,3,.7,18.33,18.33,0,0,0,4.17-.41c.73-.25.35.33.35.76a3.22,3.22,0,0,1-.07,1.28c-.17.38-1.42.57-1.88.62a48.33,48.33,0,0,1-7.87.31,7.86,7.86,0,0,1-4.33-1.59c-.52-.41-.63.15-.52.42s-.41.79-1.81.9a7.28,7.28,0,0,1-2.31.12,5.68,5.68,0,0,1-2.89-.8,3.47,3.47,0,0,1-1.25-2.82,2.89,2.89,0,0,1,.43-1.64,5.93,5.93,0,0,1,1.1-1.39c.38-.23.41-.46-.28-.46s-1.82,0-2.29,0-1.09,0-1.09.84a6.6,6.6,0,0,1-1.45,3.86,8.33,8.33,0,0,1-5.12,2.65c-1.47,0-3.82.15-5.16-.73a3.72,3.72,0,0,1-1.19-2.81v-6.83h5.73c0,1.46-.12,5.85-.12,6.37S529.52,1288.45,531.42,1287.89Zm-4.58-13.43c4.62,0,4.37,3.92,0,3.92C522.64,1278.38,522.54,1274.46,526.84,1274.46Zm-15.57,5.74c.4,0,.16.71.16,1.58v3.92c0,.71.17,2,1.56,2s1.57-1.38,1.57-1.95,0-4.71,0-5.07-.1-.47,1.15-.47h3.91c.35,0,.48,0,.48,1.51s-.11,3.49-.11,4-.09,2,1.71,2c.82,0,1,0,1.29-.24v2.25a11.24,11.24,0,0,1-4.38.85c-1.75-.09-3.33-.7-3.58-1.36-.22-.1-.64.41-1.39.74a9.49,9.49,0,0,1-3.27.67,3.86,3.86,0,0,1-1.28-.22,5.23,5.23,0,0,1-1.77-1,2.29,2.29,0,0,1-1.11-1.78c-.07-.71-.07-7.15-.07-7.45Zm-20.68,3.65a4.82,4.82,0,0,1,1.22-2,6.3,6.3,0,0,1,4-1.64h3.61v2.28c0,.55,0,.58-.42.58a3.58,3.58,0,0,0-2.21.61,2.84,2.84,0,0,0-.76,2.06,1.69,1.69,0,0,0,.56,1.14,2.87,2.87,0,0,0,1.89.6c.83,0,1.68-1.19,1.88-1.44v-5.77h4.94a12.33,12.33,0,0,1,0,2.4c0,.52-.13,10.16-.13,10.9s.28.89-.76.89H500.5c-.32,0-.38,0-.38-.84s.11-2.94.11-3.32-.3-1-.59-.57a5.59,5.59,0,0,1-3,.74,9.13,9.13,0,0,1-2.58-.22c.59.18-.22,0-1.13-.51a6.45,6.45,0,0,1-1.3-1,3.74,3.74,0,0,1-1.27-2.86A8.19,8.19,0,0,1,490.59,1283.85ZM458.1,1286a3.37,3.37,0,0,1,1-1.66,6.36,6.36,0,0,1,3.11-1.41c.6-.26,1.2-.5.45-.71a3.35,3.35,0,0,1-2-1.33,3,3,0,0,1,0-2.29,4.17,4.17,0,0,1,1.49-1.62,13.32,13.32,0,0,1,2.87-1.24,23,23,0,0,1,6.63-.93c.62.13.6,0,.6.56,0,.92-.05,2.09-.05,2.75a16.5,16.5,0,0,0-3.09.46c-.87.32-1.49,1-1.49,1.44,0,.93,1,1.43,3.28,1.27,0,1.28,0,1.58,0,2a12.12,12.12,0,0,0-3.68.89,2,2,0,0,0-1.15,1.57c0,.34.28,1.43,2.15,1.74a11.62,11.62,0,0,0,3.54.21,8.77,8.77,0,0,0,3.34-1.22,11,11,0,0,0,2.71-2.6,6.07,6.07,0,0,0,1.37-2.4,2.47,2.47,0,0,1,.36-2.44h5.65c-.54,2.72,1.47,3.29,2.53,4.61a2.56,2.56,0,0,1,.28,3c-.23.53,2.09.63,2.09,1.44s0,2.28,0,2.86c0,.25-.2.09-.71-.32s-1.71-1.63-3.05-1.63a2.53,2.53,0,0,0-1.23.57,8.41,8.41,0,0,1-3.34.84,19.11,19.11,0,0,1-3.72-.13c-2.11-.26-2.11-1.15-2.18-1.39-.16-.43-.47-.54-1-.21a8.6,8.6,0,0,1-2.66,1.23,21.93,21.93,0,0,1-6.32.47,18.73,18.73,0,0,1-5.19-.87,4.62,4.62,0,0,1-2.59-2.09A3.34,3.34,0,0,1,458.1,1286Z" transform="translate(-441.48 -1228.79)"/><path class="cls-1" d="M480,1286h1.7c.44,0,.63-.2.25-.66s-.92-1.16-1.11-1.33-.39-.3-.57-.08-.94,1.47-1.08,1.69S479.2,1286,480,1286Z" transform="translate(-441.48 -1228.79)"/><path class="cls-1" d="M480.17,1287.56c-.37,0-.43.1-.54.28-.26.76.41.61.93.61s.88,0,1.11-.37,0-.51-.19-.51Z" transform="translate(-441.48 -1228.79)"/><path class="cls-2" d="M1485.24,1276.25a12,12,0,1,1-12-12A12,12,0,0,1,1485.24,1276.25Z" transform="translate(-441.48 -1228.79)"/><path class="cls-1" d="M1469.32,1272.08h4.46c.85,0,2.36.15,2.36,2.08s-1.38,2.12-2.69,2.12h-4.13Zm0,5.62h4.31c2.11,0,2.33,1.2,2.33,2.19a14.46,14.46,0,0,0,.32,3.1h2.19v-.27c-.56-.28-.65-.56-.68-1.23l-.08-2.23c-.06-1.73-.82-2-1.57-2.31a3.12,3.12,0,0,0,1.82-3c0-2.64-2.16-3.32-4.33-3.32h-6.08V1283h1.76Z" transform="translate(-441.48 -1228.79)"/><path class="cls-1" d="M690.24,1302.59c1.49-1.44,1.31-4.42-.7-6.27-2.86-2.63-8.2-3.84-6.76-9.45h-15a4.17,4.17,0,0,0-.92,5c-.58,2-2.18,3.52-3.65,5a26,26,0,0,1-7.18,5.28,28.93,28.93,0,0,1-8.87,2.54,42.52,42.52,0,0,1-9.4-.36c-4.94-.69-5.66-2.94-5.66-3.58,0-.82.78-2.43,3-3.3,3.25-1.26,8.49-1.66,9.81-1.81,0-.83-.13-1.39-.13-4-6.09.28-8.7-.68-8.7-2.61,0-.85,1.61-2.33,3.95-2.95,3-.78,6.88-.69,8.21-.89,0-1.42.12-3.76.12-5.68,0-1.25.07-.9-1.59-1.11a73.72,73.72,0,0,0-17.59,1.89,37.8,37.8,0,0,0-7.65,2.51,10.58,10.58,0,0,0-4,3.33c-.4.83-1.12,3.13,0,4.7s4.16,2.51,5.2,2.74c2,.43.41.91-1.17,1.39-.85.25-5.61.73-8.26,2.9a6.79,6.79,0,0,0-2.52,3.46,5.57,5.57,0,0,0,.14,2.9c.25.49,2.1,2.77,6.9,4.28,3.46,1.09,9,1.55,13.73,1.78a73.63,73.63,0,0,0,16.78-1,28.19,28.19,0,0,0,7-2.46c1.45-.67,2.28-.5,2.7.42.2.46.16,2.25,5.78,2.79a61.87,61.87,0,0,0,9.8.27c4.09-.26,7.67-1,8.91-1.7a7.14,7.14,0,0,1,3.26-1.15c3.57,0,7,2.69,8.06,3.29,1.39.84,1.93,1.19,1.93.68,0-1.19-.08-4.24-.08-5.9S689.6,1303.62,690.24,1302.59Zm-16.92,2.78c-.61.65-1.65.77-3,.77s-3.1.34-2.43-1.23c.27-.42.51-.59,1.45-.59h3.47C673.43,1304.32,673.91,1304.72,673.32,1305.37Zm.09-4.34h-4.55c-2.07,0-2.44-.34-2.13-.81s2.5-3,2.88-3.41.95-.2,1.46.17,1.92,1.83,3,2.74S674.54,1301,673.41,1301Z" transform="translate(-441.48 -1228.79)"/><path class="cls-1" d="M722.89,1289.36v11.79c-.51.57-2.79,3-5,3a9.08,9.08,0,0,1-5-1.26,3.25,3.25,0,0,1-1.42-2.35c0-.83.28-3.16,2-4.27,1.9-1.21,5.25-1.21,5.88-1.21,1.16,0,1.09,0,1.09-1.15v-4.63h-9.57c-.92,0-6.82.27-10.67,3.33a10.15,10.15,0,0,0-3.2,4.12,12.3,12.3,0,0,0-.68,4.21,7,7,0,0,0,3.4,5.86,19.41,19.41,0,0,0,3.41,2c2.45,1,4.64,1.42,3,1a29.08,29.08,0,0,0,6.79.45c4.07.07,7.5-1.07,8-1.55.73-.75,1.57.49,1.57,1.24s-.33,5.11-.33,6.81.19,1.76,1,1.76h10.41c2.76,0,2-.36,2-1.88s.35-21.25.35-22.35.41-4.92,0-4.92Z" transform="translate(-441.48 -1228.79)"/><path class="cls-1" d="M774.86,1300.55c0-1.05.27-5.07.27-8.2s-.33-3.11-1.31-3.11H763.48c-3.32,0-3.07.22-3.07,1s.11,9.19.11,10.37-.45,4-4.15,4-4.12-2.59-4.12-4.06v-8c0-1.74.62-3.2-.47-3.2H738.1c0,.61,0,13.8.2,15.21.29,2,1.43,2.7,2.94,3.68a15.05,15.05,0,0,0,4.65,2,16.25,16.25,0,0,0,3.44.47,31.62,31.62,0,0,0,8.65-1.39c2-.69,3.07-1.75,3.71-1.53.7,1.38,4.86,2.61,9.53,2.79a38.38,38.38,0,0,0,11.57-1.76v-4.6c-.73.49-1.22.49-3.44.49C774.58,1304.64,774.86,1301.58,774.86,1300.55Z" transform="translate(-441.48 -1228.79)"/><path class="cls-1" d="M793.11,1285.49c11.58,0,12.22-8,0-8C781.69,1277.49,782,1285.49,793.11,1285.49Z" transform="translate(-441.48 -1228.79)"/><path class="cls-1" d="M885.21,1304.16a62.66,62.66,0,0,1-11,.82c-4-.07-6.94-.71-8-1.4-1.35-.86-.21-1.87,1.66-3.18.94-.66,6.09-1.59,7.1-1.59s.83-.82.83-1.55.17-1.48-.46-1.48c-1.87.18-6.72-.08-6.72-1.76,0-.71,1.57-1.5,3.56-1.67a42.75,42.75,0,0,1,6.46.12c1.39,0,1.39-.74,1.39-1.56s.64-3.68-.46-3.68a120,120,0,0,0-18.3.53c-6.06.76-9,2.59-10.24,3.52-2.77,2,0,5.7,2.13,5.88s2.58,1.31.74,1.66a8,8,0,0,0-4.82,2.06,6.42,6.42,0,0,0-2.09,3.11,11.26,11.26,0,0,1-4.92-.34c-1.08-.36-2.61-1.09-3-2.29-.92-2.41.23-5.83,2.17-5.83h4.13v-6.44H819.52a6.46,6.46,0,0,0-5.16-2.78,7.55,7.55,0,0,0-5.18,2.09,4.72,4.72,0,0,0-.89,3.34,4,4,0,0,0,2.59,3.61c1.61.44,3.67-.36,3.67.26a13.67,13.67,0,0,1-2.07,5.77c-1.74,2.27-4.45,3-7.22,3.61-5.07,1.12-5-1.74-5-2.85s.25-10.11.25-13.05H785.38v14c0,1.25.64,4.44,3.15,5.71,3.59,1.84,9.84,1.54,13.68,1.54,3.39,0,10-2.19,13.61-5.42a12,12,0,0,0,3.89-7.93c0-1.76,1.54-1.76,2.86-1.76s4.22.12,6.07.12,1.74.44.72.93a12.35,12.35,0,0,0-2.92,2.86,4.83,4.83,0,0,0-1.12,3.37c.3,2.66,1.22,4.6,3.29,5.77s5.32,1.48,7.65,1.68a31.84,31.84,0,0,0,6.17-.27c3.7-.27,5.06-1.29,4.78-1.84s0-1.75,1.39-.92c.7.53,4.59,2.79,11.5,3.3,8.46.64,20.23-.59,20.89-.62,1.21-.11,4.52-.46,5-1.3s.16-1.66.16-2.59S887.15,1303.62,885.21,1304.16Z" transform="translate(-441.48 -1228.79)"/><path class="cls-1" d="M1008.79,1305.1a50.14,50.14,0,0,1-8.54.53c-6.25-.39-7.16-.78-8-1.78-.54-.74-.31-1.84,2.17-3s6.65-1.21,7.08-1.39c.69-.3,0-2.28,0-2.84s-.83-.38-2-.31-6.77-.42-3.52-2.92c2.7-1.3,8.39-.63,9.39-.63s.53-3.86.33-4.56-.95-.6-3.39-.6a105.94,105.94,0,0,0-10.88.46,59.5,59.5,0,0,0-8.36,1.26c-5.52,1.48-5.72,4.5-5.72,5.11a4,4,0,0,0,3.14,3c2.25.49,2.19,2.08-.08,2.27a8.11,8.11,0,0,0-4.28,2,5.82,5.82,0,0,0-1.95,3.11c-.89-1.24-3.55,1.77-5.85-.61-1.39,0-2.4-1.85-2.4-4,0-1.09.35-20.9.35-21.72-1.92,0-12.68-.21-13.78-.21s-.7,2.32-.7,3.38-.13,21.55-.13,22.3-2.43.15-3.58,1.18a42.64,42.64,0,0,1-9.43-.34c-5-.73-5.67-3-5.67-3.62s.79-2.4,3-3.26c3.27-1.29,8.51-1.67,9.83-1.83,0-.84-.14-1.37-.14-4-6.09.25-8.7-.7-8.7-2.62,0-.9,1.63-2.35,3.95-3,3-.8,6.89-.68,8.19-.92,0-1.37.14-3.72.14-5.65,0-1.24.08-.9-1.6-1.1a73.34,73.34,0,0,0-17.59,1.9,37.21,37.21,0,0,0-7.63,2.51,10.59,10.59,0,0,0-4,3.31c-.39.83-1.11,3.13,0,4.7s4.19,2.54,5.21,2.75c2,.43.42.91-1.17,1.39-.85.27-5.6.73-8.27,2.91a6.78,6.78,0,0,0-2.5,3.46,5.1,5.1,0,0,0,.12,2.89c.23.52,2.12,2.78,6.91,4.3,3.46,1.1,9,1.54,13.74,1.76a72.53,72.53,0,0,0,16.79-1c1.4-.12,1.88-.94,1.74-2.87s1.15-.6,1.9.78c.36.67,2.44,2.23,7.27,2.6,5.26.39,13.26-.52,14-1.25.3-.45,0-1.09,0-2.18,0-.85,1.48,0,2.06,1,.18.31,2.38,1.66,6.08,2.42a87,87,0,0,0,11.33.81c8.29.32,16.88-1.26,17.38-1.66.32-.55.21-3,.27-4.14S1010.17,1305,1008.79,1305.1Z" transform="translate(-441.48 -1228.79)"/><path class="cls-1" d="M1049.12,1305.29c-1.25.41-9.48,1.39-14.56-.2a6.6,6.6,0,0,1-4.28-5.32c0-1.16,1.26-3.56,4.29-4.82a24.55,24.55,0,0,1,10.48-1.41,37.63,37.63,0,0,0,.14-3.9c0-.82.89-2-1.67-2s-14,.54-15.93.91c-1.07.19-8,1.46-11.78,4.66-3,2.52-3.08,7-3.08,7.86a7.22,7.22,0,0,0,2.7,5.44c2,1.71,5.85,3.16,9.58,4,9.22,2.11,23.86-.28,25.41-1a5.94,5.94,0,0,0,.55-3.52C1050.78,1305.1,1051.15,1304.64,1049.12,1305.29Z" transform="translate(-441.48 -1228.79)"/><path class="cls-1" d="M1109.4,1304.05a4.73,4.73,0,0,1-2-2.58c-.59-2.74,1.31-5.67,3.8-5.48.64.63,2.38.29,2.38-.76v-5.3h-24.68c-5.63-5.64-12-2.7-12,1.9s4.68,4.51,6.42,4.69c-1.09,8.67-8,8.84-9.2,8.84-5.68,0-5.79-4.8-5.79-5.73,0-4,.65-3.47,1.45-3.76s3.15.3,4,.3.37-2.49.37-4.51-1.11-2.48-2.58-2-2.57.09-2.57-.45v-4.34c0-3.21-.85-2.12-1.74-1.76-2,.84-8,1.57-11.33,2.3-1.75.1-1.39,2.39-1.39,3.6,0,.84-.94.65-2.18.65s-3.24-.55-3.24,0v5.79c0,1.11,3.68.62,5.16.5,0,.38-.1,2.77-.23,5.1s-.33,4.38.89,6.15c2.46,3.53,9.23,3.7,11.22,3.7s10.74-.47,15.61-3.36,5.93-8.24,6.29-9.46c.69-2.47,2.25-2.28,3.17-2.28h6.48c1,0,1.54.22.62.85a13.31,13.31,0,0,0-3.07,2.83,8.23,8.23,0,0,0-1.58,4.6c0,1.18,1.9,4.65,5.45,5.83,4.37,1.48,10.71.5,12.73.34,3.59-.36,3.85-1,3.85-1.61s.12-2.57.12-3.87A11,11,0,0,1,1109.4,1304.05Z" transform="translate(-441.48 -1228.79)"/><path class="cls-1" d="M1135.19,1288.24c-11.76,0-18.86,5.33-18.86,11.6,0,8.95,11.85,11.12,18,11.12s20.29-1.9,20.29-11C1154.67,1292.2,1147.34,1288.24,1135.19,1288.24Zm.2,17.39c-6.09,0-6.09-11.3.53-11.3C1141.79,1294.33,1141.6,1305.64,1135.39,1305.64Z" transform="translate(-441.48 -1228.79)"/><path class="cls-1" d="M1202.84,1304.35c-1.41.19-1.5.82-3.24.63-5.16-1.63-1.18-6.71-3.12-10.76-.88-1.78-6-4.66-10.36-5.25a23.82,23.82,0,0,0-11.63,1.58c-2.22.9-.5-1.28-1.59-1.28h-14.72c0,1.09-.65,16.82-.65,18.93s0,1.94,1.3,1.94,9.3.35,11.66.35,2.33-.53,2.33-1.73v-9.3c0-1.66,1-4.85,4.32-4.85,3.52,0,4.32,1.73,4.32,3.5s-.71,4.48.28,8.36c.57,2.6,5.93,4.23,11.11,4.35a26.32,26.32,0,0,0,9.23-1.51c2.11-1,1.65-2,1.65-2.76S1204.19,1304.16,1202.84,1304.35Z" transform="translate(-441.48 -1228.79)"/><path class="cls-1" d="M1214.2,1285.49c11.59,0,12.23-8,0-8C1202.77,1277.49,1203.06,1285.49,1214.2,1285.49Z" transform="translate(-441.48 -1228.79)"/><path class="cls-1" d="M1223.18,1305.1c-.33-.18-1.7-.32-1.95-1.88-.55-3.72.18-10.86.18-12.21,0-1.92.52-1.92-1.57-1.92h-13.16c0,1-.69,13.71-.69,14.72,0,.52.4,4.82,6,6.17s16.24-.24,17.11-1.1v-4.71C1227.75,1304.84,1224.17,1305.64,1223.18,1305.1Z" transform="translate(-441.48 -1228.79)"/><path class="cls-1" d="M1311.3,1303.79c-1.59-.21-2.61-.35-2.16-2.08s1.47-2.56-.45-4.62-5.89-4.9-6.67-5.73-.63-3.13-.48-4.42h-14.38c-.89,0-3,2.21-1.67,4.75a23,23,0,0,1-6.38,7.63,32.49,32.49,0,0,1-12.73,5.62c-2.75.4-8.85,1.14-12.81,0-3.66-1.05-5.37-3.95-5.33-5.21a6.25,6.25,0,0,1,3.8-5.21,29.41,29.41,0,0,1,11.1-1.82,27.77,27.77,0,0,0,.44-3.6c0-1.56.81-2-2.14-2a98.81,98.81,0,0,0-14.92.88,40.79,40.79,0,0,0-9,2.58,11.52,11.52,0,0,0-7.34,10.05c0,2.61,3.8,8.61,14.3,9.87,5.64.69,13.16.19,19.16-.71,5.34-.79,9.46-2,10-2.44,2.5-1.83,2.66-.46,2.94.16a3.28,3.28,0,0,0,2.26,2c2.46.82,7,1.09,10.86,1.06a40.93,40.93,0,0,0,10.76-1.54,16.31,16.31,0,0,0,3.39-1.7c1.44-.56,9.3,3.58,10.42,4.49v-6.44C1314.28,1304.68,1312.91,1304,1311.3,1303.79Zm-19.4,1.56c-.61.68-1.66.79-3,.79s-3.07.34-2.42-1.23c.28-.42.52-.59,1.46-.59h3.45C1292,1304.31,1292.5,1304.72,1291.9,1305.35Zm.09-4.32h-4.54c-2.1,0-2.44-.37-2.1-.83s2.47-3,2.87-3.41.94-.17,1.45.16,1.91,1.86,3,2.77S1293.11,1301,1292,1301Z" transform="translate(-441.48 -1228.79)"/><path class="cls-1" d="M1373.41,1305.75c-4.58-.46-9.57-2.67-10.83-3.07-.56-.17-1.38-.23-1.61-.65-.74-1.26.32-2.3.16-4.93.06-2.59-.51-5.7.55-5.6.9,0,6.67.34,9.46-1.78,2.6-2,2.45-6.24,2-7.09-1-1.76-5.07-4.87-9.49-4.87-2.16,0-8.7.52-12.36,2.3-3.85,1.84-4.74,5-4.74,5.72s-.3,12.87-.3,14.91c-1.92.52-5.63,1.7-5.63,5.92s7.34,4.06,9.36,4.33a21.29,21.29,0,0,0,6.21-.62c2.36-.6,4.06-1.59,4.92-1s5.87,1.52,10.49,1.56a32.4,32.4,0,0,0,9-1.09c1.32-.54,1.26-3.24,1.32-4.9C1381.34,1304.89,1377.52,1306.15,1373.41,1305.75Zm-7.65-23.36a3.1,3.1,0,0,1,3,1.94c.35.84-.95,1.9-1.72,2.23s-6.13,1.59-6-.29C1361,1285.26,1362.89,1282.39,1365.76,1282.39Z" transform="translate(-441.48 -1228.79)"/><path class="cls-1" d="M1402.84,1305.29a5.27,5.27,0,0,1-2.74-1.93,7.94,7.94,0,0,1-1.08-3.89c-.34-4.38,1.47-3.72,1.86-3.72s2.12,0,3.1.1.69-1.51.69-2.49.9-3.59.16-3.59-4.79.17-5.14-.24,0-3.95,0-4.94c0-1.41.34-2.39-1.13-2-2.19.55-8.39,2.59-10.84,2.59s-2,1.18-2,2.4c0,0,0-.21-.09,1.1s-1.36,1-3.18.92-1.79-.08-1.79.62-.18,3.54-.18,5.67a16.32,16.32,0,0,1,4.36.13.9.9,0,0,1,.73.95c-.06,1,0,3.41-.06,6.36-.1,1-.62,3,.74,4.53,1.22,1.36,4.21,2.27,6.82,2.74,5.75,1,14.68-1.54,14.83-1.62,0-.44.12-2.81.18-4.28A14.89,14.89,0,0,1,1402.84,1305.29Z" transform="translate(-441.48 -1228.79)"/><path class="cls-1" d="M1456.46,1305.29c-1,.27-5.73-.37-5.63-3.6s.1-20.12.2-22c.07-1.27-1.5-.81-2.76-.81s-9.31-.07-11.41-.07c0,1.71-.65,20.32-.65,21.61s-2.47,5-5.13,5-6.56-.93-6.56-5.34c0-3.85,8.23-4.8,9.3-4.8,0-1.91.09-4.6.09-5.71a76.93,76.93,0,0,0-12.83.13,23.09,23.09,0,0,0-7,2.08c-3,1.59-5.5,4.29-5.5,8.38a8,8,0,0,0,1.43,5.6c1.54,2,5,3.65,8.23,4.52a30.65,30.65,0,0,0,11.38.44,16.46,16.46,0,0,0,6.51-2.64c1.91-1.38,2.28,1.2,3.28,1.58a23.68,23.68,0,0,0,8.11,1.47c4.92,0,11-1.45,11.78-1.94a19.08,19.08,0,0,0,.27-4C1459.58,1304,1457.45,1305,1456.46,1305.29Z" transform="translate(-441.48 -1228.79)"/></svg>