<svg id="Layer_1" data-name="Layer 1" xmlns="http://www.w3.org/2000/svg" viewBox="0 0 509.82 460.51"><defs><style>.cls-1{fill:#ec1c24;}</style></defs><title>Logo-theme</title><path class="cls-1" d="M962.5,748.23h-4.11a226.9,226.9,0,0,0-31.3,2.72h66.76A227.17,227.17,0,0,0,962.5,748.23Z" transform="translate(-706.75 -748.23)"/><path class="cls-1" d="M993.85,752.12H927.09a176.33,176.33,0,0,0-21.42,4.7h109.57A179.94,179.94,0,0,0,993.85,752.12Z" transform="translate(-706.75 -748.23)"/><path class="cls-1" d="M994.73,1153.76H928a227.51,227.51,0,0,0,31.32,2.74h4.12A228.45,228.45,0,0,0,994.73,1153.76Z" transform="translate(-706.75 -748.23)"/><path class="cls-1" d="M1159.87,1001.5H762.79c1.8,6.8,3.88,13.53,6.22,20h384.64C1156,1015,1158.09,1008.3,1159.87,1001.5Z" transform="translate(-706.75 -748.23)"/><path class="cls-1" d="M1150.68,1028.85H772c2.43,5.81,5,11.44,7.93,16.85h362.89A175.7,175.7,0,0,0,1150.68,1028.85Z" transform="translate(-706.75 -748.23)"/><path class="cls-1" d="M1138.77,1053.06H784c2.92,4.91,6,9.91,9.37,14.75h336C1132.68,1063,1135.78,1058,1138.77,1053.06Z" transform="translate(-706.75 -748.23)"/><path class="cls-1" d="M1113.51,1087.75c4.23-4.72,8.26-9.6,12.14-14.72H797.06c3.85,5.12,7.88,10,12.13,14.72Z" transform="translate(-706.75 -748.23)"/><path class="cls-1" d="M1107.7,1093.83H815c4,4.16,8.28,8.2,12.73,12h267.17C1099.36,1102,1103.61,1098,1107.7,1093.83Z" transform="translate(-706.75 -748.23)"/><path class="cls-1" d="M836.23,1112.74c3,2.32,6.15,4.61,9.25,6.8h231.75c3.06-2.19,6.18-4.48,9.15-6.8Z" transform="translate(-706.75 -748.23)"/><path class="cls-1" d="M856.33,1126.48c4,2.29,8,4.53,12.22,6.65h185.6c4.14-2.12,8.23-4.36,12.21-6.65Z" transform="translate(-706.75 -748.23)"/><path class="cls-1" d="M1042.36,1138.78h-162c5.45,2.37,11,4.37,16.62,6.23h128.69C1031.33,1143.15,1036.93,1141.14,1042.36,1138.78Z" transform="translate(-706.75 -748.23)"/><path class="cls-1" d="M994.73,1152.59a205.56,205.56,0,0,0,21.43-4.67H906.56a203,203,0,0,0,21.4,4.67Z" transform="translate(-706.75 -748.23)"/><path class="cls-1" d="M1152.69,883.18H768.24c-2.43,6.47-4.53,13.15-6.33,20H1159A171.49,171.49,0,0,0,1152.69,883.18Z" transform="translate(-706.75 -748.23)"/><path class="cls-1" d="M1141.89,859.05H779a174.4,174.4,0,0,0-7.84,16.71h378.68A176.66,176.66,0,0,0,1141.89,859.05Z" transform="translate(-706.75 -748.23)"/><path class="cls-1" d="M1128.51,836.92h-336c-3.31,4.81-6.44,9.62-9.39,14.71h354.75C1134.89,846.54,1131.82,841.73,1128.51,836.92Z" transform="translate(-706.75 -748.23)"/><path class="cls-1" d="M1112.57,816.93H808.36A190.84,190.84,0,0,0,796.2,831.7h328.48A173.15,173.15,0,0,0,1112.57,816.93Z" transform="translate(-706.75 -748.23)"/><path class="cls-1" d="M1094,798.9H826.83c-4.39,3.82-8.66,7.77-12.75,12h292.73C1102.73,806.67,1098.44,802.72,1094,798.9Z" transform="translate(-706.75 -748.23)"/><path class="cls-1" d="M1076.33,785.2H844.59c-3.14,2.15-6.16,4.4-9.15,6.7H1085.5C1082.46,789.6,1079.47,787.34,1076.33,785.2Z" transform="translate(-706.75 -748.23)"/><path class="cls-1" d="M1053.29,771.54H867.63c-4.16,2.16-8.22,4.31-12.26,6.78h210.14C1061.55,775.85,1057.44,773.7,1053.29,771.54Z" transform="translate(-706.75 -748.23)"/><path class="cls-1" d="M1024.83,759.69H896.09c-5.66,1.79-11.22,4-16.61,6.26h162C1036,763.69,1030.49,761.49,1024.83,759.69Z" transform="translate(-706.75 -748.23)"/><path class="cls-1" d="M714.43,968.89l18.28-.7c3.27-.17,4,.29,4.26,3.19l3-.09L739.24,954h-3c.11,3.15-.66,3.4-4,3.68l-18.25.59c-3.33.27-4.1-.13-4.24-3.23l-3,.08.67,17.48,3.08-.09C710.38,969.43,711.13,969.06,714.43,968.89Z" transform="translate(-706.75 -748.23)"/><path class="cls-1" d="M741.16,1003l3.09-.41-1.52-10-3.06.3c.42,2.6-.24,3.33-3.49,3.85L725,998.37v0l16.39-14.38L739.59,972l-3,.55c.36,2.58,0,3.14-3.43,3.62L715,979.06c-3.22.48-4,0-4.46-2.59l-3,.54,1.47,9.92,3-.39c-.32-2.7.3-3.22,3.63-3.61l14.66-2.24h0L710,997.85l.95,6.6,25.79-3.9C739.95,1000.07,740.85,1000.7,741.16,1003Z" transform="translate(-706.75 -748.23)"/><path class="cls-1" d="M739.95,1044.26c1.16-1.86,1.76-4.08,2.56-8.71.73-3.21.91-4.62,1.66-5.85a3,3,0,0,1,1.76-1.51,2.42,2.42,0,0,1,2.15,0,4,4,0,0,1,1.92,2.51c1.15,3.18,0,5-4.45,7.65l2,3.42a64.17,64.17,0,0,1,7.24-3.62,22.87,22.87,0,0,0-1.47-8.76c-1.41-3.81-3.29-6.49-5.38-8a8.43,8.43,0,0,0-8-1.08,10.45,10.45,0,0,0-4.64,3.26c-1.62,2.3-2.14,5.66-2.64,8.59a16.6,16.6,0,0,1-1.6,5.64,4.22,4.22,0,0,1-2.45,2,3.15,3.15,0,0,1-2.7-.21,5,5,0,0,1-2.05-2.52c-1-2.86-.4-5.56,4.8-9.1l-2.21-3.35a73,73,0,0,1-7.44,4.13,25.79,25.79,0,0,0,1.54,9.36c1.71,4.83,4.29,7.76,7.09,9.19a9.49,9.49,0,0,0,7.56.61A9.93,9.93,0,0,0,739.95,1044.26Z" transform="translate(-706.75 -748.23)"/><path class="cls-1" d="M765.09,1063.23a13.1,13.1,0,0,0-1.34-9.58,12.26,12.26,0,0,0-6.72-6.46c-4-1.68-9-1.08-14.6,1.76-5.91,3-8.93,6.65-10.05,10.09-1.12,3.26-.47,6.56,1.17,9.85h0c1.8,3.55,4.1,6,7.34,7.16,3.52,1.13,8.21.87,14.15-2.19C760.55,1071,764,1067.42,765.09,1063.23Zm-25.78,5.24c-1.52.19-2.48.11-2.94-.93-.41-.73,0-1.58,1.12-2.71,1.73-1.6,5.13-3.66,9.91-6.1,6.39-3.12,9.38-4.34,11.27-4.43,1.25-.11,2,.08,2.34.85h0c.47.82.26,1.49-.59,2.52-1.19,1.42-3.89,3.14-10.34,6.32A46.71,46.71,0,0,1,739.31,1068.47Z" transform="translate(-706.75 -748.23)"/><path class="cls-1" d="M780.21,1094.8c2.73-1.82,3.64-2,5-.07l2.52-1.68-5.42-7.79-2.5,1.65c1.22,1.88,1.09,2.67-1.77,4.62l-11.8,8.21a10.41,10.41,0,0,1-4.83,2.06,5.39,5.39,0,0,1-4.43-2.22,4.64,4.64,0,0,1-.73-4c.5-1.76,2.07-3.24,4.09-4.66l11.68-8c2.92-2,3.56-2.08,4.93-.06l2.5-1.69L770,1067.42l-2.5,1.79c1.53,2.17,1.09,3-1.65,4.79l-11.77,8.14c-3.24,2.28-5.39,4.65-5.67,7.49-.34,3.07.95,6.3,3.81,10.48,2.54,3.63,5.08,5.24,7.86,5.46s5.29-.48,8.48-2.59Z" transform="translate(-706.75 -748.23)"/><path class="cls-1" d="M806.53,1117.91l2.18-2.06-6.9-7.48-2.25,2c1.76,1.91,1.67,2.84-.8,5.14l-8.29,7.53h0l5.52-21-8.18-8.84-2.21,2.06c1.77,2,1.77,2.67-.73,5l-13.52,12.5c-2.49,2.19-3.36,2.38-5.21.4l-2.22,2.15,7,7.45,2.24-2.06c-1.89-2.05-1.56-2.9.77-5l11-10.08h.06l-7.15,25.61,4.55,4.86,19.13-17.7C803.79,1116.13,804.84,1116.13,806.53,1117.91Z" transform="translate(-706.75 -748.23)"/><path class="cls-1" d="M820.64,1125.54,808.9,1116l-1.9,2.33c2.2,1.82,1.95,2.67-.1,5.21l-11.65,14.09c-2,2.54-2.91,2.93-5.09,1.18l-1.87,2.37,11.32,9.36c4.59,3.73,8.62,4.55,12.35,3.73,3.75-1,7.07-3.73,10.08-7.5s4.62-7.86,4.29-11.59C826.07,1131.75,824.38,1128.66,820.64,1125.54Zm-1.87,6.38c-.8,2.19-2.61,4.94-5.62,8.51-3.3,4.08-5.7,6.31-7.51,7.44s-3,1.1-3.69.49l-.29-.27c-.78-.62-.75-.86,1.58-3.78l11.86-14.46c2.22-2.59,2.52-2.67,3.17-2.23l.4.35C819.45,1128.66,819.59,1130,818.76,1131.92Z" transform="translate(-706.75 -748.23)"/><path class="cls-1" d="M843,1161.22a4.54,4.54,0,0,0-6.24,1.68,4.65,4.65,0,0,0,1.68,6.38,4.72,4.72,0,0,0,6.26-1.78,4.67,4.67,0,0,0-1.71-6.28Z" transform="translate(-706.75 -748.23)"/><path class="cls-1" d="M875.38,1186l6.78-17c1.16-3,1.77-3.54,4.62-2.46l1.1-2.9-16.24-6.37-1.09,2.89c2.87,1,2.9,1.9,1.67,5l-6.69,17c-1.22,3-1.84,3.57-4.7,2.43l-1.15,2.92,16.24,6.38,1.06-2.77C874.22,1189.95,874.19,1189.11,875.38,1186Z" transform="translate(-706.75 -748.23)"/><path class="cls-1" d="M907.58,1172.63c2.4.64,2.83,1.59,2,4.76l-3,10.83h0L900,1167.47l-11.59-3.24-.79,2.93c2.56.69,2.92,1.31,2,4.61l-4.82,17.88c-.9,3.13-1.55,3.73-4.07,3.13l-.78,2.93,9.76,2.68.8-3c-2.53-.67-2.82-1.54-1.86-4.78l3.8-14.2h.11l7.5,25.35,6.47,1.83,6.78-25.14c.86-3.33,1.74-3.87,4.06-3.13l.81-3-9.83-2.69Z" transform="translate(-706.75 -748.23)"/><path class="cls-1" d="M932.37,1174.45l-1.76,9.52,3.93.39c1.33-5.78,1.93-6,4.43-5.88l1.09.1-1.51,21.78c-.22,3.31-.67,4.2-3.86,3.93l-.2,3,17.71,1.34.23-3.15c-3.19-.18-3.5-.91-3.31-4.24l1.55-21.93,1.09.16c2.48.11,3.09.35,3.59,6.33l3.84.27-.3-9.63Z" transform="translate(-706.75 -748.23)"/><path class="cls-1" d="M975.61,1201.12l-.59-18.35c-.08-3.32.22-4.11,3.22-4.11l-.08-3.18-17.47.66.08,3.09c3.08-.15,3.47.55,3.58,4l.65,18.28c.16,3.24-.21,4-3.28,4l.07,3.18,17.49-.62-.07-3C976.15,1205.15,975.75,1204.34,975.61,1201.12Z" transform="translate(-706.75 -748.23)"/><path class="cls-1" d="M1016,1195.85l-2.92-17.78c-.49-3.58-.31-4.29,2.12-4.72l-.51-3-12.33,2-3,18-.15.08-8.3-16.24-12.36,1.92.47,3c2.48-.31,3,.31,3.45,3.57l2.88,18.08c.5,3.21.25,4-2,4.43l.42,3,8.95-1.48-.47-2.93c-2.07.28-2.79-.33-3.27-3.6l-2.25-14.4h.06l10.58,20.51,2.77-.35,3.92-22.47h.2l2.22,13.85c.47,3.27.28,4.12-2.45,4.49l.47,3,15.54-2.41-.49-3C1017,1199.9,1016.51,1199.25,1016,1195.85Z" transform="translate(-706.75 -748.23)"/><path class="cls-1" d="M1043.9,1185.67c.49,4.91.1,5.62-2,6.36l-3.88,1.12c-.76.21-1,.21-1.56-1.55l-2.88-9.1,2.1-.63c1.55-.52,2.16-.12,3.35,3.79l3.54-1.16-3.7-11.83-3.52,1.1c1,3.23.77,4.29-.75,4.79l-2.06.58-2.63-8.4c-.37-1.24-.37-1.72.74-2l2.75-.91c2.08-.69,2.76-.24,5,3.55l3.75-1.11-3.75-7.63-23.44,7.33,1,2.86c2.77-.86,3.5-.26,4.48,2.95l5.44,17.36c1,3.18.7,4.07-2.13,5l1,2.89,24.37-7.6-1.4-8.94Z" transform="translate(-706.75 -748.23)"/><path class="cls-1" d="M1068.4,1167.47h0a4.59,4.59,0,0,0-2.08,6.14,4.6,4.6,0,1,0,8.22-4.11A4.5,4.5,0,0,0,1068.4,1167.47Z" transform="translate(-706.75 -748.23)"/><path class="cls-1" d="M1106.93,1154.26l-10.43-15.07c-1.84-2.71-2-3.56.51-5.21l-1.75-2.52-14.37,10,1.74,2.4c2.55-1.7,3.3-1.27,5.15,1.36l10.44,15.1c1.92,2.66,2,3.59-.47,5.21l1.7,2.59,14.27-9.89-1.65-2.57C1109.59,1157.31,1108.86,1157,1106.93,1154.26Z" transform="translate(-706.75 -748.23)"/><path class="cls-1" d="M1121.27,1113.24l-2-2.27-7.65,6.72,2,2.36c1.94-1.7,2.86-1.56,5,.92l7.47,8.47-.1.1-21-6.14-9,7.87,2.05,2.33c1.87-1.76,2.61-1.68,4.88.92l12.15,13.84c2.19,2.48,2.3,3.41.38,5.18l1.92,2.26,7.72-6.69-2-2.37c-2.08,1.87-2.84,1.49-5-1l-9.74-11.15v-.11l25.36,7.8,5-4.3-17.16-19.67C1119.44,1116,1119.44,1114.93,1121.27,1113.24Z" transform="translate(-706.75 -748.23)"/><path class="cls-1" d="M1141.31,1084.43l2.42,1.82c1-1.33,1.78-1.5,3.57.89l9.33,12.47h0l-15.21-5.84c-1.68-.58-2.35-1.33-1.22-2.91l-2.42-1.91-9.2,12.11,2.44,1.83c.82-1.1,1.54-1.22,4.05-.39l26.74,9.64,4.53-5.88-17-23.18c-1.15-1.65-1.15-2.49-.51-3.33l-1.79-1.43-.68-.41Z" transform="translate(-706.75 -748.23)"/><path class="cls-1" d="M1175,1079.16l-15.54-9.65c-2.8-1.69-3.29-2.44-1.7-5l-2.6-1.54-9.17,14.77.27.17h.06l.62.41,1.62,1.07c1.62-2.58,2.52-2.49,5.35-.84l15.54,9.64c2.83,1.74,3.27,2.48,1.67,5l2.56,1.71,9.22-15-2.62-1.52C1178.74,1081,1177.85,1080.91,1175,1079.16Z" transform="translate(-706.75 -748.23)"/><path class="cls-1" d="M1187.22,1049.48a8.78,8.78,0,0,0-6.07-.67c-2.09.35-4.08,1.6-8,4.15-2.67,1.75-3.86,2.64-5.28,3a3.61,3.61,0,0,1-2.28-.21,3,3,0,0,1-1.5-1.56,4.36,4.36,0,0,1,.4-3.15c1.51-3.09,3.66-3.56,8.6-2.2l1.11-3.8a69.42,69.42,0,0,1-7.64-2.61,23.71,23.71,0,0,0-5.26,7.08c-1.76,3.86-2.32,6.87-1.9,9.55a8.54,8.54,0,0,0,4.83,6.47,11.15,11.15,0,0,0,5.54,1c2.79-.53,5.45-2.42,8-4.15a18.14,18.14,0,0,1,5.14-2.84,4.05,4.05,0,0,1,3.16.34,3.42,3.42,0,0,1,1.76,2,4.13,4.13,0,0,1-.48,3.27c-1.28,2.76-3.56,4.23-9.8,2.92l-.8,4a47.53,47.53,0,0,1,8.19,2.43,29.1,29.1,0,0,0,5.56-7.79c2.26-4.54,2.47-8.28,1.63-11.32A9.38,9.38,0,0,0,1187.22,1049.48Z" transform="translate(-706.75 -748.23)"/><path class="cls-1" d="M1195.74,1034.09l-17.11-6.26c-3.1-1.08-3.71-1.8-2.69-4.6l-2.88-1.06-5.94,16.35,2.87,1.12c1-2.91,1.88-3,4.93-1.78l17.19,6.29c3.11,1.09,3.67,1.7,2.69,4.67l2.84,1,6-16.37-2.93-1.06C1199.66,1035.15,1198.87,1035.17,1195.74,1034.09Z" transform="translate(-706.75 -748.23)"/><path class="cls-1" d="M1196.23,997.85c-6.12-1.55-11.06-.89-14.65,1.56a12.72,12.72,0,0,0-5.16,8.06,13.48,13.48,0,0,0,.86,9.47c2,3.64,6.19,6.58,12.18,7.93,6.45,1.6,11.06,1,14.21-1a12.67,12.67,0,0,0,5.54-8.24h.06c.95-3.91.8-7.25-1-10.16C1206.35,1002.23,1202.64,999.47,1196.23,997.85Zm7.38,18.34c-2.38.14-6.26-.54-11.49-1.78-6.92-1.77-10-2.91-11.48-4.12-1-.74-1.47-1.26-1.23-2.11v-.05c.27-.87.89-1.25,2.14-1.46,1.83-.34,5.08,0,12,1.8,5.2,1.39,9,2.57,11.06,3.77,1.34.85,2,1.58,1.66,2.67C1206,1015.67,1205.09,1016.09,1203.6,1016.2Z" transform="translate(-706.75 -748.23)"/><path class="cls-1" d="M1215.88,975.57l.69-6.51-25.94-2.8c-3.24-.25-3.93-1.12-3.67-3.46l-3-.35-1.09,10.11,3.08.33c.21-2.45,1-3.07,4.31-2.77l11.28,1.26v.09l-19.65,9.73-1.21,11.94,3.06.32c.24-2.63.82-3,4.29-2.74l18.23,2c3.34.38,4,.91,3.71,3.5l3.06.36,1.09-10.1-3-.43c-.32,2.78-1.15,3.07-4.4,2.78l-14.8-1.62.08,0Z" transform="translate(-706.75 -748.23)"/><path class="cls-1" d="M1161.47,994.51a202.88,202.88,0,0,0,4.82-44.08,206.07,206.07,0,0,0-3.75-38.9H760.09a207.14,207.14,0,0,0-3.75,38.9,195.74,195.74,0,0,0,4.93,44.08Zm-123.94-28.93c3.86-1.08,7.63-2.43,10.06-6.4,1.92-3.32,2.86-9.48,2.86-10.43s-2.86.34-5.12-.49c-2.07-.74-3.53-3.85-3.53-6.38,0-2.24,0-4.42,1.19-6.06a9.44,9.44,0,0,1,7.17-3.75c4,0,6.17,3.26,7.18,4.92h35.76v11.61h-5.79c-2.63,0-4.24,6.13-3,10.52.64,2.07,2.77,3.32,4.26,4,2.44,1,6.19,1,6.77.61a14.38,14.38,0,0,1,2.89-5.61c2-2.08,4.91-3.66,6.65-3.66,2.63-.66,2-2.59-1-2.94s-6.71-7-2.93-10.6c1.77-1.7,5.79-5,14.22-6.31a133.83,133.83,0,0,1,25.33-.89c1.62,0,.61,5.1.61,6.59s0,2.76-1.86,2.76c-1.09,0-5.42-.65-9-.16-2.71.36-4.93,1.73-4.93,3,0,3,6.77,3.41,9.37,3.14.84,0,.61,1.33.61,2.58s.24,2.82-1.13,2.82-8.53,1.69-9.91,2.86c-2.53,2.34-4.16,4.11-2.27,5.66,1.54,1.16,5.6,2.37,11.09,2.56,5.83.18,14-1,15.34-1.52,2.7-.91,1.3,1.22,1.3,2.8s.37,3.18-.25,4.71-5.23,2.11-6.94,2.29c-.87,0-17.22,2.15-29,1.14-9.59-.91-15-5-15.93-5.86-1.9-1.51-2.32.56-1.9,1.55s-1.52,2.89-6.67,3.29a26.78,26.78,0,0,1-8.51.43c-3.28-.19-7.79-.83-10.61-2.94s-4.19-5.45-4.59-10.37a10.62,10.62,0,0,1,1.57-6,21.86,21.86,0,0,1,4.05-5.12c1.38-.85,1.51-1.68-1-1.68s-6.68-.17-8.41-.17-4,0-4,3.1c0,1.56-.66,8.83-5.33,14.2-5,5.82-14.17,9.75-18.85,9.75-5.39,0-14,.54-19-2.67-3.51-2.36-4.36-8.1-4.36-10.35V937h21.08c0,5.35-.43,21.52-.43,23.45S1030.54,967.63,1037.53,965.59Zm-16.86-49.4c17,0,16.07,14.41,0,14.41C1005.26,930.6,1004.86,916.19,1020.67,916.19ZM963.4,937.31c1.49,0,.6,2.62.6,5.79v14.41c0,2.6.64,7.32,5.73,7.32s5.78-5.08,5.78-7.16-.15-17.32-.15-18.65-.35-1.72,4.23-1.72H994c1.31,0,1.78-.08,1.78,5.56s-.39,12.85-.39,14.79c0,1.76-.35,7.29,6.28,7.29,3,0,3.69,0,4.73-.87v8.28a41.32,41.32,0,0,1-16.09,3.13c-6.42-.34-12.25-2.59-13.17-5-.82-.38-2.37,1.52-5.13,2.72a35,35,0,0,1-12,2.46,14.2,14.2,0,0,1-4.72-.8,19.22,19.22,0,0,1-6.53-3.59c-2.06-1.65-3.68-2.9-4.07-6.56-.28-2.6-.28-26.28-.28-27.41Zm-76,13.41a17.73,17.73,0,0,1,4.49-7.38c5.3-5.42,13.45-6,14.76-6h13.26v8.38c0,2,.1,2.12-1.55,2.12-.81,0-5.49-.09-8.12,2.24-2.42,1.94-2.79,6-2.79,7.59a6.23,6.23,0,0,0,2.06,4.21c1.65,1.59,4.57,2.21,6.94,2.21,3,0,6.16-4.36,6.93-5.31V937.54h18.18c.55,0,0,6.77,0,8.81s-.48,37.37-.48,40.1,1,3.28-2.8,3.28H923.79c-1.18,0-1.41,0-1.41-3.09s.39-10.82.39-12.23-1.11-3.62-2.17-2.11c-.68.67-5.45,2.84-11,2.71-3,0-6.47.13-9.5-.79,2.16.66-.8.08-4.16-1.87a23.73,23.73,0,0,1-4.8-3.54,13.75,13.75,0,0,1-4.67-10.51A30.06,30.06,0,0,1,887.35,950.72Zm-119.5,8.06a12.41,12.41,0,0,1,3.5-6.09c3.66-3.93,10.29-4.76,11.42-5.17,2.22-1,4.42-1.82,1.65-2.63-1.39-.29-5.57-1.94-7.21-4.91-1.56-2.68-.56-6.87.07-8.41a15.31,15.31,0,0,1,5.48-6c2.74-1.89,6.62-3.14,10.56-4.56,10.37-3.44,23.13-3.47,24.4-3.41,2.29.47,2.19-.17,2.19,2.06,0,3.4-.19,7.67-.19,10.12-1.83.39-7.23.23-11.35,1.68-3.21,1.16-5.48,3.76-5.48,5.31,0,3.44,3.62,5.25,12.06,4.66,0,4.71.12,5.79.12,7.25-1.77.24-9.06.92-13.53,3.27a7.27,7.27,0,0,0-4.22,5.77c0,1.25,1,5.26,7.91,6.42a42.71,42.71,0,0,0,13,.76,32.31,32.31,0,0,0,12.3-4.49,40.27,40.27,0,0,0,10-9.55c2.1-2.63,4.22-5.27,5-8.83a9.09,9.09,0,0,1,1.34-9h20.78c-2,10,5.41,12.12,9.31,16.95,2.85,3.29,3.16,8.7,1,11.15-.84,1.94,7.67,2.31,7.67,5.28s.1,8.38.1,10.51c0,.91-.73.32-2.63-1.19-1.51-1.16-6.3-6-11.22-6-1.57,0-2.95,1.05-4.53,2.09-1.72,1.21-6.69,2.63-12.29,3.1a70.26,70.26,0,0,1-13.66-.47c-7.77-1-7.76-4.23-8-5.1-.58-1.59-1.74-2-3.71-.76a31.63,31.63,0,0,1-9.78,4.53c-6.62,1.72-15.47,2.17-23.25,1.72-6.57-.39-14.28-1.25-19.09-3.19-6.69-2.68-9.24-6.81-9.52-7.68A12.2,12.2,0,0,1,767.85,958.78Z" transform="translate(-706.75 -748.23)"/><path class="cls-1" d="M848.38,958.5h6.26c1.63,0,2.31-.74.92-2.43s-3.4-4.27-4.08-4.88-1.44-1.1-2.11-.3-3.47,5.39-4,6.22C844.94,957.76,845.48,958.5,848.38,958.5Z" transform="translate(-706.75 -748.23)"/><path class="cls-1" d="M849,964.38c-1.34,0-1.59.35-2,1-.95,2.8,1.49,2.24,3.42,2.24,1.77,0,3.24-.18,4.07-1.37s.17-1.89-.68-1.89Z" transform="translate(-706.75 -748.23)"/></svg>