<svg id="Layer_1" data-name="Layer 1" xmlns="http://www.w3.org/2000/svg" viewBox="0 0 427.61 141.79"><defs><style>.cls-1{fill:#fff;}</style></defs><title>Logo-main-white</title><path class="cls-1" d="M827.15,1788.73h-1.27a69.86,69.86,0,0,0-9.64.84h20.55A69.94,69.94,0,0,0,827.15,1788.73Z" transform="translate(-748.41 -1788.73)"/><path class="cls-1" d="M836.81,1789.93H816.25a54.29,54.29,0,0,0-6.6,1.45h33.74A55.4,55.4,0,0,0,836.81,1789.93Z" transform="translate(-748.41 -1788.73)"/><path class="cls-1" d="M837.07,1913.59H816.52a70,70,0,0,0,9.64.84h1.27A70.34,70.34,0,0,0,837.07,1913.59Z" transform="translate(-748.41 -1788.73)"/><path class="cls-1" d="M887.92,1866.71H765.66c.56,2.09,1.19,4.17,1.92,6.16H886C886.73,1870.88,887.37,1868.81,887.92,1866.71Z" transform="translate(-748.41 -1788.73)"/><path class="cls-1" d="M885.09,1875.13H768.49c.75,1.79,1.54,3.52,2.44,5.19H882.66A54.1,54.1,0,0,0,885.09,1875.13Z" transform="translate(-748.41 -1788.73)"/><path class="cls-1" d="M881.43,1882.59H772.18c.9,1.51,1.86,3.05,2.89,4.54H878.51C879.55,1885.64,880.5,1884.1,881.43,1882.59Z" transform="translate(-748.41 -1788.73)"/><path class="cls-1" d="M873.65,1893.27c1.3-1.45,2.54-3,3.74-4.53H776.21c1.18,1.58,2.43,3.08,3.74,4.53Z" transform="translate(-748.41 -1788.73)"/><path class="cls-1" d="M871.86,1895.14H781.75c1.23,1.28,2.55,2.53,3.92,3.7h82.26C869.29,1897.67,870.6,1896.42,871.86,1895.14Z" transform="translate(-748.41 -1788.73)"/><path class="cls-1" d="M788.28,1901c.93.71,1.89,1.42,2.85,2.09h71.35c.94-.67,1.9-1.38,2.82-2.09Z" transform="translate(-748.41 -1788.73)"/><path class="cls-1" d="M794.46,1905.19c1.22.7,2.47,1.39,3.76,2h57.15c1.28-.65,2.53-1.34,3.76-2Z" transform="translate(-748.41 -1788.73)"/><path class="cls-1" d="M851.74,1909H801.86c1.68.73,3.38,1.35,5.12,1.92H846.6C848.35,1910.33,850.07,1909.71,851.74,1909Z" transform="translate(-748.41 -1788.73)"/><path class="cls-1" d="M837.07,1913.23a63.29,63.29,0,0,0,6.6-1.44H809.93a62.51,62.51,0,0,0,6.59,1.44Z" transform="translate(-748.41 -1788.73)"/><path class="cls-1" d="M885.71,1830.28H767.34c-.75,2-1.39,4-2,6.14H887.65A52.8,52.8,0,0,0,885.71,1830.28Z" transform="translate(-748.41 -1788.73)"/><path class="cls-1" d="M882.39,1822.86H770.65a53.7,53.7,0,0,0-2.42,5.15H884.82A54.39,54.39,0,0,0,882.39,1822.86Z" transform="translate(-748.41 -1788.73)"/><path class="cls-1" d="M878.27,1816H774.8c-1,1.48-2,3-2.89,4.53H881.13C880.23,1819,879.29,1817.52,878.27,1816Z" transform="translate(-748.41 -1788.73)"/><path class="cls-1" d="M873.36,1809.89H779.69a58.76,58.76,0,0,0-3.75,4.55H877.09A53.31,53.31,0,0,0,873.36,1809.89Z" transform="translate(-748.41 -1788.73)"/><path class="cls-1" d="M867.65,1804.33H785.38c-1.35,1.18-2.67,2.39-3.92,3.69h90.13C870.33,1806.73,869,1805.51,867.65,1804.33Z" transform="translate(-748.41 -1788.73)"/><path class="cls-1" d="M862.2,1800.11H790.85c-1,.66-1.9,1.35-2.82,2.06h77C864.09,1801.47,863.17,1800.78,862.2,1800.11Z" transform="translate(-748.41 -1788.73)"/><path class="cls-1" d="M855.11,1795.91H797.94c-1.28.67-2.53,1.33-3.78,2.09h64.7C857.65,1797.24,856.38,1796.58,855.11,1795.91Z" transform="translate(-748.41 -1788.73)"/><path class="cls-1" d="M846.35,1792.26H806.7c-1.74.55-3.45,1.23-5.11,1.93h49.89C849.79,1793.49,848.09,1792.82,846.35,1792.26Z" transform="translate(-748.41 -1788.73)"/><path class="cls-1" d="M750.77,1856.67l5.63-.22c1-.05,1.24.09,1.31,1l.92,0-.22-5.33h-.92c0,1-.2,1-1.22,1.13l-5.62.18c-1,.08-1.26,0-1.31-1l-.94,0,.21,5.38.95,0C749.52,1856.84,749.76,1856.73,750.77,1856.67Z" transform="translate(-748.41 -1788.73)"/><path class="cls-1" d="M759,1867.18l1-.13-.47-3.09-.94.09c.13.8-.07,1-1.07,1.19l-3.43.51h0l5-4.43-.56-3.67-.92.17c.11.79,0,1-1.06,1.11l-5.61.89c-1,.15-1.25,0-1.37-.8l-.92.16.45,3.05.92-.12c-.1-.83.09-1,1.12-1.11l4.51-.69h0l-6.23,5.29.29,2,7.94-1.2C758.63,1866.27,758.91,1866.47,759,1867.18Z" transform="translate(-748.41 -1788.73)"/><path class="cls-1" d="M758.63,1879.88a7.21,7.21,0,0,0,.79-2.68,6.49,6.49,0,0,1,.51-1.8.91.91,0,0,1,.54-.47.74.74,0,0,1,.66,0,1.23,1.23,0,0,1,.59.77c.36,1,0,1.55-1.37,2.36l.6,1.05a19.76,19.76,0,0,1,2.23-1.11,7,7,0,0,0-.45-2.7,5.19,5.19,0,0,0-1.66-2.46,2.59,2.59,0,0,0-2.46-.33,3.22,3.22,0,0,0-1.43,1,6.63,6.63,0,0,0-.81,2.65,5.11,5.11,0,0,1-.49,1.74,1.3,1.3,0,0,1-.76.63,1,1,0,0,1-.83-.06,1.53,1.53,0,0,1-.63-.77c-.3-.88-.12-1.71,1.48-2.8l-.68-1a22.47,22.47,0,0,1-2.29,1.27,7.94,7.94,0,0,0,.48,2.88,4.8,4.8,0,0,0,2.18,2.83,2.92,2.92,0,0,0,2.33.19A3.06,3.06,0,0,0,758.63,1879.88Z" transform="translate(-748.41 -1788.73)"/><path class="cls-1" d="M766.37,1885.72a4,4,0,0,0-.41-2.95,3.78,3.78,0,0,0-2.07-2,5.36,5.36,0,0,0-4.49.54,5.7,5.7,0,0,0-3.1,3.11,3.85,3.85,0,0,0,.36,3h0a4.07,4.07,0,0,0,2.26,2.2,5.67,5.67,0,0,0,4.36-.67A5.43,5.43,0,0,0,766.37,1885.72Zm-7.94,1.61c-.47.06-.76,0-.91-.29s0-.49.34-.84a15.26,15.26,0,0,1,3.05-1.88,11.47,11.47,0,0,1,3.47-1.36c.38,0,.61,0,.72.26h0c.15.25.08.46-.18.77a10.88,10.88,0,0,1-3.18,1.94A14.38,14.38,0,0,1,758.43,1887.33Z" transform="translate(-748.41 -1788.73)"/><path class="cls-1" d="M771,1895.44c.84-.56,1.12-.6,1.53,0l.78-.52-1.67-2.4-.77.51c.38.58.34.82-.55,1.42l-3.63,2.53a3.2,3.2,0,0,1-1.49.63,1.66,1.66,0,0,1-1.37-.68,1.43,1.43,0,0,1-.22-1.25,2.94,2.94,0,0,1,1.26-1.44l3.6-2.47c.9-.61,1.1-.64,1.52,0l.77-.52-2.9-4.21-.77.55c.47.67.34.92-.51,1.48l-3.63,2.51a3.47,3.47,0,0,0-1.74,2.31,4.92,4.92,0,0,0,1.17,3.23,3.32,3.32,0,0,0,2.42,1.68,3.7,3.7,0,0,0,2.61-.8Z" transform="translate(-748.41 -1788.73)"/><path class="cls-1" d="M779.13,1902.56l.67-.63-2.12-2.3-.69.62c.54.59.51.88-.25,1.58l-2.55,2.32h0l1.7-6.48-2.52-2.72-.68.63c.55.61.55.82-.23,1.54l-4.16,3.85c-.77.67-1,.73-1.6.12l-.68.66,2.14,2.29.69-.63c-.58-.63-.48-.89.24-1.55l3.38-3.1h0l-2.2,7.88,1.4,1.5,5.89-5.45C778.29,1902,778.61,1902,779.13,1902.56Z" transform="translate(-748.41 -1788.73)"/><path class="cls-1" d="M783.47,1904.91l-3.62-2.95-.59.72c.68.56.6.82,0,1.6l-3.59,4.34c-.62.78-.9.9-1.57.36l-.58.73,3.49,2.88a4.34,4.34,0,0,0,3.8,1.15,6.31,6.31,0,0,0,3.1-2.31,5,5,0,0,0,1.32-3.57A4.21,4.21,0,0,0,783.47,1904.91Zm-.58,2a9.66,9.66,0,0,1-1.73,2.62,10.46,10.46,0,0,1-2.31,2.29c-.57.34-.93.34-1.14.15l-.09-.08c-.24-.19-.23-.26.49-1.16l3.65-4.45c.68-.8.77-.82,1-.69l.12.11C783.11,1905.87,783.15,1906.27,782.9,1906.87Z" transform="translate(-748.41 -1788.73)"/><path class="cls-1" d="M790.35,1915.89a1.4,1.4,0,0,0-1.92.52,1.43,1.43,0,0,0,.52,2,1.45,1.45,0,0,0,1.93-.55,1.44,1.44,0,0,0-.53-1.93Z" transform="translate(-748.41 -1788.73)"/><path class="cls-1" d="M800.33,1923.53l2.09-5.24c.36-.92.55-1.09,1.42-.76l.34-.89-5-2-.33.89c.88.32.89.59.52,1.53l-2.06,5.24c-.38.93-.56,1.1-1.45.75l-.35.9,5,2,.33-.85C800,1924.74,800,1924.48,800.33,1923.53Z" transform="translate(-748.41 -1788.73)"/><path class="cls-1" d="M810.24,1919.4c.74.2.87.49.62,1.47l-.92,3.33h0l-2-6.39-3.57-1-.24.9c.79.21.9.4.63,1.42l-1.48,5.51c-.28,1-.48,1.15-1.25,1l-.24.9,3,.82.25-.92c-.78-.21-.87-.47-.57-1.47l1.17-4.37h0l2.31,7.81,2,.56,2.09-7.74c.27-1,.53-1.19,1.25-1l.25-.91-3-.83Z" transform="translate(-748.41 -1788.73)"/><path class="cls-1" d="M817.88,1920l-.54,2.93,1.21.12c.41-1.78.59-1.84,1.37-1.81l.34,0-.46,6.7c-.07,1-.2,1.29-1.19,1.21l-.06.92,5.45.41.07-1c-1-.06-1.08-.28-1-1.31l.48-6.75.34,0c.76,0,1,.11,1.11,1.95l1.18.08-.09-3Z" transform="translate(-748.41 -1788.73)"/><path class="cls-1" d="M831.19,1928.18l-.18-5.65c0-1,.07-1.26,1-1.26l0-1-5.38.2,0,1c.95,0,1.07.17,1.1,1.23l.2,5.63c.05,1-.06,1.25-1,1.25l0,1,5.39-.19,0-.93C831.36,1929.42,831.23,1929.17,831.19,1928.18Z" transform="translate(-748.41 -1788.73)"/><path class="cls-1" d="M843.62,1926.55l-.9-5.47c-.15-1.1-.1-1.32.65-1.45l-.16-.92-3.8.61-.94,5.55,0,0-2.55-5-3.81.59.14.92c.76-.1.92.1,1.06,1.1l.89,5.57c.15,1,.08,1.24-.63,1.37l.13.93,2.76-.46-.14-.9c-.64.09-.86-.1-1-1.11l-.69-4.43h0l3.26,6.32.85-.11,1.21-6.92H840l.68,4.26c.14,1,.09,1.27-.75,1.38l.14.94,4.78-.74-.15-.94C843.94,1927.8,843.78,1927.6,843.62,1926.55Z" transform="translate(-748.41 -1788.73)"/><path class="cls-1" d="M852.21,1923.42c.15,1.51,0,1.73-.61,2l-1.19.34c-.23.06-.32.06-.48-.48l-.89-2.8.65-.19c.48-.16.66,0,1,1.17l1.09-.36-1.14-3.64-1.08.34c.31,1,.24,1.32-.23,1.47l-.63.18-.81-2.59c-.11-.38-.11-.53.23-.61l.85-.28c.64-.21.85-.07,1.53,1.09l1.15-.34-1.15-2.35-7.22,2.26.29.88c.85-.27,1.08-.08,1.38.91l1.68,5.35c.31,1,.22,1.25-.66,1.52l.3.89,7.5-2.34-.43-2.75Z" transform="translate(-748.41 -1788.73)"/><path class="cls-1" d="M859.76,1917.82h0a1.41,1.41,0,0,0-.64,1.89,1.42,1.42,0,1,0,2.53-1.26A1.38,1.38,0,0,0,859.76,1917.82Z" transform="translate(-748.41 -1788.73)"/><path class="cls-1" d="M871.62,1913.75l-3.21-4.64c-.57-.83-.62-1.09.16-1.6l-.54-.77-4.42,3.08.54.74c.79-.52,1-.39,1.59.42l3.21,4.65c.59.82.6,1.1-.14,1.6l.52.8,4.39-3-.51-.79C872.44,1914.69,872.21,1914.58,871.62,1913.75Z" transform="translate(-748.41 -1788.73)"/><path class="cls-1" d="M876,1901.12l-.62-.7-2.36,2.07.61.73c.6-.52.88-.48,1.55.28l2.3,2.61,0,0-6.45-1.89-2.77,2.42.63.72c.58-.54.8-.52,1.5.28l3.74,4.26c.67.76.71,1,.12,1.59l.59.7,2.38-2.06-.63-.73c-.64.58-.87.46-1.54-.29l-3-3.43v0l7.81,2.4,1.55-1.32-5.28-6.06C875.47,1902,875.47,1901.64,876,1901.12Z" transform="translate(-748.41 -1788.73)"/><path class="cls-1" d="M882.21,1892.25l.74.56c.32-.41.55-.46,1.1.27l2.87,3.84h0l-4.68-1.8c-.52-.18-.72-.41-.38-.89l-.75-.59-2.83,3.73.75.56c.25-.34.47-.38,1.25-.12l8.23,3,1.39-1.81-5.24-7.14c-.35-.51-.35-.77-.16-1l-.55-.44-.21-.13Z" transform="translate(-748.41 -1788.73)"/><path class="cls-1" d="M892.59,1890.62l-4.78-3c-.86-.52-1-.75-.52-1.54l-.8-.48-2.82,4.55.08.05h0l.19.13.5.33c.5-.79.78-.77,1.65-.26l4.78,3c.87.53,1,.76.52,1.54l.79.53,2.84-4.62-.81-.47C893.73,1891.18,893.46,1891.16,892.59,1890.62Z" transform="translate(-748.41 -1788.73)"/><path class="cls-1" d="M896.34,1881.49a2.7,2.7,0,0,0-1.87-.21,7.27,7.27,0,0,0-2.47,1.28,5.72,5.72,0,0,1-1.63.91,1.11,1.11,0,0,1-.7-.06.92.92,0,0,1-.46-.48,1.34,1.34,0,0,1,.12-1c.46-1,1.13-1.09,2.65-.68l.34-1.17a21.37,21.37,0,0,1-2.35-.8,7.3,7.3,0,0,0-1.62,2.18,5.13,5.13,0,0,0-.58,2.94,2.63,2.63,0,0,0,1.49,2,3.43,3.43,0,0,0,1.71.32,7.2,7.2,0,0,0,2.47-1.28,5.59,5.59,0,0,1,1.58-.88,1.25,1.25,0,0,1,1,.1,1.05,1.05,0,0,1,.54.62,1.27,1.27,0,0,1-.15,1c-.4.85-1.1,1.3-3,.9l-.25,1.23a14.63,14.63,0,0,1,2.52.75,9,9,0,0,0,1.71-2.4,4.79,4.79,0,0,0,.5-3.49A2.89,2.89,0,0,0,896.34,1881.49Z" transform="translate(-748.41 -1788.73)"/><path class="cls-1" d="M899,1876.75l-5.27-1.93c-1-.33-1.14-.55-.83-1.42l-.89-.33-1.83,5,.88.35c.3-.9.58-.93,1.52-.55l5.29,1.94c1,.33,1.13.52.83,1.44l.87.3,1.86-5-.9-.33C900.17,1877.07,899.93,1877.08,899,1876.75Z" transform="translate(-748.41 -1788.73)"/><path class="cls-1" d="M899.12,1865.59a5.44,5.44,0,0,0-4.51.48,3.92,3.92,0,0,0-1.59,2.48,4.15,4.15,0,0,0,.26,2.92,5.48,5.48,0,0,0,3.75,2.44c2,.49,3.4.32,4.37-.3a3.9,3.9,0,0,0,1.7-2.54h0a3.89,3.89,0,0,0-.32-3.13A5.52,5.52,0,0,0,899.12,1865.59Zm2.27,5.65a14.33,14.33,0,0,1-3.54-.55,10.58,10.58,0,0,1-3.53-1.27c-.3-.23-.45-.39-.38-.65v0c.08-.27.27-.38.66-.45a10.28,10.28,0,0,1,3.69.55,16.2,16.2,0,0,1,3.4,1.16c.41.26.61.49.51.82S901.84,1871.21,901.39,1871.24Z" transform="translate(-748.41 -1788.73)"/><path class="cls-1" d="M905.17,1858.73l.21-2-8-.86c-1-.08-1.21-.34-1.13-1.07l-.93-.11-.34,3.11.95.1c.06-.75.32-.95,1.33-.85l3.47.39v0l-6,3-.37,3.67.94.1c.08-.81.25-.93,1.32-.84l5.61.61c1,.12,1.23.28,1.14,1.08l.94.11.33-3.11-.93-.13c-.1.86-.35.95-1.36.86l-4.56-.5h0Z" transform="translate(-748.41 -1788.73)"/><path class="cls-1" d="M888.42,1864.56A62.47,62.47,0,0,0,889.9,1851a63.45,63.45,0,0,0-1.15-12H764.83a63.78,63.78,0,0,0-1.15,12,60.27,60.27,0,0,0,1.52,13.57Zm-38.16-8.91a4.73,4.73,0,0,0,3.1-2,9.53,9.53,0,0,0,.88-3.21c0-.33-.88.1-1.58-.15a2.19,2.19,0,0,1-1.09-2,3.2,3.2,0,0,1,.37-1.86,2.91,2.91,0,0,1,2.21-1.15,2.7,2.7,0,0,1,2.21,1.52h11v3.58h-1.78c-.81,0-1.31,1.89-.92,3.24a2.33,2.33,0,0,0,1.31,1.24,3.63,3.63,0,0,0,2.08.19,4.43,4.43,0,0,1,.89-1.73,3.48,3.48,0,0,1,2-1.13c.81-.2.61-.8-.3-.91s-2.07-2.14-.9-3.26a7.66,7.66,0,0,1,4.38-1.94,41.21,41.21,0,0,1,7.8-.27c.5,0,.19,1.57.19,2s0,.85-.57.85a14.86,14.86,0,0,0-2.77,0c-.83.11-1.52.53-1.52.93,0,.93,2.08,1.05,2.89,1,.26,0,.19.41.19.79s.07.87-.35.87a9.68,9.68,0,0,0-3.05.88c-.78.72-1.28,1.27-.7,1.74a7,7,0,0,0,3.41.79,20.71,20.71,0,0,0,4.72-.47c.83-.28.4.38.4.86a3.67,3.67,0,0,1-.08,1.45c-.2.43-1.61.65-2.14.71a54.67,54.67,0,0,1-8.92.35,8.9,8.9,0,0,1-4.9-1.8c-.59-.46-.71.17-.59.48s-.47.89-2.05,1a8.25,8.25,0,0,1-2.62.13,6.44,6.44,0,0,1-3.27-.91,3.94,3.94,0,0,1-1.41-3.19,3.27,3.27,0,0,1,.48-1.86,6.73,6.73,0,0,1,1.25-1.58c.43-.26.46-.52-.32-.52s-2.06-.05-2.59-.05-1.23,0-1.23,1a7.48,7.48,0,0,1-1.64,4.37,9.43,9.43,0,0,1-5.8,3c-1.66,0-4.32.16-5.85-.82-1.08-.73-1.34-2.49-1.34-3.19v-7.74h6.49c0,1.65-.13,6.63-.13,7.22S848.1,1856.29,850.25,1855.66Zm-5.19-15.21c5.23,0,4.95,4.44,0,4.44C840.32,1844.88,840.2,1840.45,845.06,1840.45Zm-17.63,6.5c.46,0,.19.81.19,1.78v4.44c0,.8.2,2.25,1.76,2.25s1.78-1.56,1.78-2.2,0-5.33,0-5.74-.11-.53,1.3-.53h4.43c.4,0,.55,0,.55,1.71s-.12,4-.12,4.55-.11,2.24,1.93,2.24c.93,0,1.14,0,1.46-.27v2.55a12.72,12.72,0,0,1-5,1c-2-.1-3.77-.8-4.05-1.53-.25-.12-.73.47-1.58.84a10.76,10.76,0,0,1-3.71.76,4.37,4.37,0,0,1-1.45-.24,5.92,5.92,0,0,1-2-1.11,2.59,2.59,0,0,1-1.25-2c-.08-.8-.08-8.09-.08-8.44ZM804,1851.08a5.46,5.46,0,0,1,1.38-2.27,7.14,7.14,0,0,1,4.54-1.86H814v2.58c0,.63,0,.65-.48.65a4.06,4.06,0,0,0-2.5.69,3.22,3.22,0,0,0-.86,2.34,1.92,1.92,0,0,0,.64,1.29,3.24,3.24,0,0,0,2.14.68c.94,0,1.9-1.34,2.13-1.64V1847h5.6a14,14,0,0,1,0,2.71c0,.59-.15,11.51-.15,12.35s.32,1-.86,1h-4.45c-.36,0-.43,0-.43-1s.12-3.33.12-3.76-.34-1.11-.67-.65a6.34,6.34,0,0,1-3.4.83,10.33,10.33,0,0,1-2.93-.24c.67.2-.25,0-1.28-.58a7.31,7.31,0,0,1-1.48-1.09,4.23,4.23,0,0,1-1.44-3.23A9.25,9.25,0,0,1,804,1851.08Zm-36.79,2.48a3.82,3.82,0,0,1,1.08-1.88c1.13-1.21,3.17-1.47,3.52-1.59.69-.3,1.36-.56.51-.81a3.79,3.79,0,0,1-2.22-1.51,3.39,3.39,0,0,1,0-2.59,4.72,4.72,0,0,1,1.69-1.83,15.08,15.08,0,0,1,3.25-1.4,26,26,0,0,1,7.51-1.05c.71.14.68-.05.68.63,0,1-.06,2.36-.06,3.11a18.67,18.67,0,0,0-3.49.52c-1,.36-1.69,1.16-1.69,1.64,0,1.06,1.11,1.62,3.71,1.43,0,1.45,0,1.78,0,2.23a13.73,13.73,0,0,0-4.16,1,2.24,2.24,0,0,0-1.3,1.78c0,.38.31,1.62,2.43,2a13.15,13.15,0,0,0,4,.23,10,10,0,0,0,3.79-1.38,12.4,12.4,0,0,0,3.07-2.94,6.87,6.87,0,0,0,1.55-2.72,2.8,2.8,0,0,1,.41-2.76H798c-.61,3.08,1.66,3.73,2.87,5.22a2.89,2.89,0,0,1,.31,3.43c-.26.6,2.36.71,2.36,1.63s0,2.58,0,3.24c0,.28-.22.1-.81-.37s-1.94-1.85-3.46-1.85a2.87,2.87,0,0,0-1.39.64,9.53,9.53,0,0,1-3.79,1,21.63,21.63,0,0,1-4.21-.14c-2.39-.3-2.39-1.3-2.47-1.57-.18-.49-.54-.61-1.14-.23a9.74,9.74,0,0,1-3,1.4,24.85,24.85,0,0,1-7.16.53,21.2,21.2,0,0,1-5.88-1,5.23,5.23,0,0,1-2.93-2.36A3.76,3.76,0,0,1,767.22,1853.56Z" transform="translate(-748.41 -1788.73)"/><path class="cls-1" d="M792,1853.48h1.93c.5,0,.71-.23.28-.75s-1-1.31-1.26-1.5-.44-.34-.65-.09-1.07,1.66-1.23,1.92S791.12,1853.48,792,1853.48Z" transform="translate(-748.41 -1788.73)"/><path class="cls-1" d="M792.22,1855.28c-.41,0-.49.11-.61.31-.29.86.46.69,1.05.69s1-.06,1.25-.42.05-.58-.21-.58Z" transform="translate(-748.41 -1788.73)"/><path class="cls-1" d="M990.37,1844.78c1.42-1.54,1.24-4.74-.66-6.71-2.35-2.45-6.48-3.75-6.62-8a2.21,2.21,0,0,0-2.21-2.12H970.29a2.2,2.2,0,0,0-2,1.19,4.83,4.83,0,0,0-.33,3.4,2.41,2.41,0,0,1,0,1.48,15.4,15.4,0,0,1-3.22,4.57,23.42,23.42,0,0,1-15.19,8.35,35.48,35.48,0,0,1-8.9-.38c-4.68-.75-5.36-3.15-5.36-3.83a4.37,4.37,0,0,1,2.86-3.53,29.52,29.52,0,0,1,7.26-1.7,2.22,2.22,0,0,0,1.93-2.29v-.06a2.24,2.24,0,0,0-2.23-2.13c-4.19-.05-6-1.06-6-2.85,0-.91,1.53-2.48,3.73-3.15a26.5,26.5,0,0,1,5.72-.79,2.21,2.21,0,0,0,2.09-2.16c0-1.3.08-2.79.08-4.09s.07-1-1.5-1.17a61.76,61.76,0,0,0-16.64,2,33.83,33.83,0,0,0-7.24,2.68,10.48,10.48,0,0,0-3.75,3.56c-.37.88-1.06,3.34,0,5s3.94,2.69,4.92,2.93c1.9.46.4,1-1.1,1.49-.8.27-5.31.77-7.81,3.1a7.27,7.27,0,0,0-2.38,3.7,6.55,6.55,0,0,0,.13,3.09c.23.54,2,3,6.53,4.58,3.27,1.16,8.52,1.66,13,1.9a61.18,61.18,0,0,0,15.89-1.06,24.39,24.39,0,0,0,6.65-2.62c1.38-.72,2.17-.53,2.56.46.19.49.15,2.41,5.47,3a54.07,54.07,0,0,0,9.28.3c3.87-.29,7.25-1.12,8.42-1.84a6.43,6.43,0,0,1,3.09-1.22c3.38,0,6.63,2.85,7.63,3.51,1.32.9,1.83,1.27,1.83.72,0-1.27-.08-4.52-.08-6.29S989.77,1845.87,990.37,1844.78Zm-16,3c-.58.7-1.56.82-2.82.82s-2.94.36-2.31-1.31c.26-.46.48-.64,1.37-.64h3.29C974.46,1846.61,974.92,1847,974.36,1847.74Zm.09-4.64h-4.3c-2,0-2.3-.36-2-.86s2.36-3.25,2.73-3.65.89-.21,1.38.17,1.82,2,2.79,2.94S975.52,1843.1,974.44,1843.1Z" transform="translate(-748.41 -1788.73)"/><path class="cls-1" d="M1021.27,1832.85v9.55a2.22,2.22,0,0,1-.58,1.5c-.89,1-2.53,2.52-4.13,2.54a7.85,7.85,0,0,1-4.77-1.35,3.58,3.58,0,0,1-1.35-2.52c0-.87.27-3.37,1.89-4.57,1.79-1.28,5-1.28,5.56-1.28,1.1,0,1,0,1-1.23v-2.73a2.23,2.23,0,0,0-2.23-2.23h-6.83c-.87,0-6.46.29-10.1,3.57a10.74,10.74,0,0,0-3,4.41,14.79,14.79,0,0,0-.65,4.49,7.75,7.75,0,0,0,3.22,6.27,18.3,18.3,0,0,0,3.22,2.11c2.33,1.11,4.4,1.51,2.9,1.06a24.3,24.3,0,0,0,6.43.49c3.85.07,7.09-1.15,7.59-1.66.69-.8,1.49.51,1.49,1.33s-.32,5.47-.32,7.29.19,1.87,1,1.87h9.87c2.6,0,1.88-.39,1.88-2s.33-22.72.33-23.88.39-5.26,0-5.26H1023.5A2.23,2.23,0,0,0,1021.27,1832.85Z" transform="translate(-748.41 -1788.73)"/><path class="cls-1" d="M1070.46,1842.58c0-1.12.26-5.41.26-8.77s-.32-3.32-1.24-3.32h-9.79c-3.14,0-2.91.25-2.91,1s.1,9.81.1,11.07-.42,4.24-3.92,4.24-3.9-2.75-3.9-4.34V1834c0-1.87.59-3.41-.44-3.41h-10.73a2.22,2.22,0,0,0-2.23,2.22c0,4.19,0,12.87.18,14,.27,2.14,1.35,2.89,2.79,3.94a13.21,13.21,0,0,0,4.4,2.13,13,13,0,0,0,3.25.51,27.25,27.25,0,0,0,8.19-1.49,11.57,11.57,0,0,0,1.79-.9,2.17,2.17,0,0,1,2.45.1c1.47,1.12,4.72,2,8.3,2.16a31.63,31.63,0,0,0,9.34-1.35,2.23,2.23,0,0,0,1.61-2.14v-.57a2.21,2.21,0,0,0-2.24-2.23h-1C1070.19,1846.94,1070.46,1843.68,1070.46,1842.58Z" transform="translate(-748.41 -1788.73)"/><path class="cls-1" d="M1087.73,1826.5c11,0,11.57-8.56,0-8.56C1076.93,1817.93,1077.19,1826.5,1087.73,1826.5Z" transform="translate(-748.41 -1788.73)"/><path class="cls-1" d="M1174.89,1846.45a52.17,52.17,0,0,1-10.45.88c-3.8-.08-6.57-.76-7.59-1.51-1.28-.92-.19-2,1.58-3.39.89-.71,5.75-1.69,6.72-1.69s.77-.88.77-1.66.17-1.57-.43-1.57c-1.77.19-6.35-.09-6.35-1.87,0-.77,1.48-1.62,3.36-1.8a35.64,35.64,0,0,1,6.11.12c1.33,0,1.33-.78,1.33-1.66s.6-3.94-.43-3.94a101.45,101.45,0,0,0-17.32.57c-5.73.81-8.48,2.76-9.69,3.76-2.62,2.18,0,6.09,2,6.28s2.44,1.39.69,1.79a7.25,7.25,0,0,0-4.56,2.18,7.45,7.45,0,0,0-1.59,2.24,2.19,2.19,0,0,1-2.09,1.24,10,10,0,0,1-2.94-.51,4.57,4.57,0,0,1-2.89-2.46c-.87-2.57.22-6.23,2.06-6.23h1.68a2.23,2.23,0,0,0,2.23-2.23v-2.42a2.23,2.23,0,0,0-2.23-2.23h-21a2.26,2.26,0,0,1-1.74-.78,5.52,5.52,0,0,0-4.3-2.19,6.75,6.75,0,0,0-4.9,2.22,5.54,5.54,0,0,0-.85,3.58,4.24,4.24,0,0,0,2.46,3.84c1.52.48,3.46-.37,3.46.28a15.86,15.86,0,0,1-2,6.17c-1.65,2.42-4.21,3.23-6.84,3.86-4.79,1.18-4.69-1.86-4.69-3.05,0-.95.17-7.59.23-11.69a2.22,2.22,0,0,0-2.23-2.25h-9.88a2.23,2.23,0,0,0-2.23,2.23v12.71c0,1.33.61,4.76,3,6.11,3.41,2,9.32,1.65,13,1.65,3.2,0,9.44-2.34,12.87-5.79a13.57,13.57,0,0,0,3.68-8.47c0-1.88,1.46-1.88,2.7-1.88s4,.12,5.74.12,1.65.48.69,1a12.81,12.81,0,0,0-2.77,3.08,5.61,5.61,0,0,0-1.06,3.59c.29,2.84,1.16,4.93,3.12,6.16s5,1.59,7.24,1.8a27.31,27.31,0,0,0,5.84-.29c3.5-.29,4.79-1.38,4.52-2s0-1.88,1.32-1c.66.57,4.34,3,10.89,3.54,8,.66,19.14-.64,19.77-.66,1.14-.12,4.27-.5,4.72-1.4a6.16,6.16,0,0,0,.16-2.76C1175.77,1847.15,1176.72,1845.87,1174.89,1846.45Z" transform="translate(-748.41 -1788.73)"/><path class="cls-1" d="M978,1890.45a28.52,28.52,0,0,1-5.53.39c-4.05-.29-4.63-.57-5.15-1.31-.36-.54-.21-1.35,1.4-2.18s4.3-.87,4.59-1c.44-.22,0-1.66,0-2.08s-.54-.28-1.3-.23-4.38-.31-2.28-2.13c1.75-1,5.44-.47,6.08-.47s.34-2.83.21-3.33-.62-.45-2.19-.45a63,63,0,0,0-7.05.34,33.92,33.92,0,0,0-5.42.92c-3.57,1.08-3.71,3.29-3.71,3.74a2.8,2.8,0,0,0,2,2.21c1.45.35,1.41,1.52-.06,1.66a5.08,5.08,0,0,0-2.78,1.47,4.39,4.39,0,0,0-1.25,2.27c-.58-.91-2.3,1.3-3.79-.45-.9,0-1.55-1.37-1.55-2.94,0-.66.15-10.51.21-14.38A1.52,1.52,0,0,0,949,1871l-7.42-.12c-.71,0-.45,1.7-.45,2.47s-.09,15.77-.09,16.32-1.27.18-2.07.67a1.33,1.33,0,0,1-.55.23,24.71,24.71,0,0,1-5.79-.29c-3.22-.52-3.67-2.16-3.67-2.64a3,3,0,0,1,2-2.38,19.16,19.16,0,0,1,5-1.18,1.52,1.52,0,0,0,1.33-1.58v0a1.53,1.53,0,0,0-1.52-1.45c-2.88,0-4.14-.73-4.14-1.94,0-.65,1.05-1.73,2.56-2.17a17.68,17.68,0,0,1,3.92-.55,1.51,1.51,0,0,0,1.42-1.47c0-.88.06-1.9.06-2.79s.05-.65-1-.81a42.23,42.23,0,0,0-11.4,1.39,22.26,22.26,0,0,0-4.95,1.84,7.19,7.19,0,0,0-2.58,2.42,4.25,4.25,0,0,0,0,3.44c.75,1.22,2.71,1.86,3.38,2,1.3.31.27.65-.76,1-.54.19-3.62.53-5.35,2.12a5,5,0,0,0-1.62,2.53,4.28,4.28,0,0,0,.08,2.12c.15.37,1.37,2,4.48,3.14a36.16,36.16,0,0,0,8.9,1.28,41.41,41.41,0,0,0,10.87-.71c.9-.09,1.22-.69,1.13-2.1s.74-.44,1.23.57c.23.5,1.58,1.64,4.72,1.91,3.4.29,8.58-.37,9.09-.91.19-.33,0-.79,0-1.6,0-.62,1,0,1.34.74a8.4,8.4,0,0,0,3.94,1.77,49.71,49.71,0,0,0,7.34.59,42.33,42.33,0,0,0,10.24-.89,1.5,1.5,0,0,0,1.16-1.42c0-.67,0-1.46,0-1.93C979.75,1889.79,978.92,1890.38,978,1890.45Z" transform="translate(-748.41 -1788.73)"/><path class="cls-1" d="M1004.15,1890.59c-.8.3-6.14,1-9.43-.14a4.8,4.8,0,0,1-2.77-3.9,4.62,4.62,0,0,1,2.78-3.54,14.91,14.91,0,0,1,5.39-1.11,1.53,1.53,0,0,0,1.48-1.48c0-.6,0-1,0-1.29,0-.6.58-1.47-1.08-1.47s-9,.39-10.32.66c-.69.14-5.18,1.08-7.63,3.42-1.93,1.84-2,5.11-2,5.75a5.57,5.57,0,0,0,1.76,4c1.27,1.25,3.78,2.31,6.2,2.94,5.17,1.34,13,.2,15.62-.47a1.53,1.53,0,0,0,1.14-1.24,5.29,5.29,0,0,0,0-1.6C1005.23,1890.45,1005.47,1890.11,1004.15,1890.59Z" transform="translate(-748.41 -1788.73)"/><path class="cls-1" d="M1043.2,1889.68a3.4,3.4,0,0,1-1.31-1.88c-.38-2,.85-4.15,2.47-4,.4.47,1.54.21,1.54-.55v-2.35a1.52,1.52,0,0,0-1.52-1.52h-13.82a1.57,1.57,0,0,1-1.09-.47c-3.53-3.47-7.35-1.36-7.35,1.88a3,3,0,0,0,2.65,3.25,1.52,1.52,0,0,1,1.22,1.84c-1.22,4.71-5,4.81-5.66,4.81-3.68,0-3.75-3.51-3.75-4.18,0-3,.42-2.54.95-2.76a10.9,10.9,0,0,1,2.57.21c.54,0,.24-1.82.24-3.3s-.71-1.82-1.67-1.49-1.67.06-1.67-.33v-3.17c0-2.36-.55-1.55-1.13-1.29-1.3.61-5.19,1.15-7.33,1.69-1.14.08-.9,1.75-.9,2.63,0,.61-.61.47-1.41.47s-2.11-.4-2.11,0v4.24c0,.48.84.55,1.72.5a1.51,1.51,0,0,1,1.57,1.58c0,.61-.06,1.31-.09,2-.1,1.65-.21,3.21.58,4.5,1.59,2.58,6,2.7,7.26,2.7s6.95-.34,10.11-2.45,3.84-6,4.07-6.92c.45-1.82,1.46-1.68,2.06-1.68h4.2c.62,0,1,.16.4.63a9.12,9.12,0,0,0-2,2.07,6.59,6.59,0,0,0-1,3.36,5.89,5.89,0,0,0,3.52,4.26c2.83,1.08,6.94.37,8.26.25,2.32-.26,2.49-.77,2.49-1.18,0-.19,0-.61,0-1.1a1.52,1.52,0,0,0-1.45-1.58A6.1,6.1,0,0,1,1043.2,1889.68Z" transform="translate(-748.41 -1788.73)"/><path class="cls-1" d="M1059.91,1878.12c-7.62,0-12.22,3.9-12.22,8.49,0,6.54,7.68,8.14,11.69,8.14s13.15-1.39,13.15-8.08C1072.53,1881,1067.78,1878.12,1059.91,1878.12Zm.13,12.72c-3.95,0-3.95-8.27.35-8.27C1064.18,1882.57,1064.06,1890.84,1060,1890.84Z" transform="translate(-748.41 -1788.73)"/><path class="cls-1" d="M1103.73,1889.9c-.91.15-1,.61-2.1.47-3.35-1.2-.77-4.9-2-7.87-.57-1.3-3.88-3.41-6.71-3.84a14,14,0,0,0-7.54,1.15c-1.44.66-.32-.93-1-.93h-8.06a1.52,1.52,0,0,0-1.52,1.47c-.1,3.33-.38,11.13-.38,12.39,0,1.54,0,1.41.85,1.41s6,.26,7.56.26,1.5-.39,1.5-1.27v-6.81c0-1.21.67-3.54,2.79-3.54,2.29,0,2.8,1.26,2.8,2.55a20.22,20.22,0,0,0,.19,6.12c.37,1.91,3.83,3.1,7.21,3.19a15.21,15.21,0,0,0,6-1.11,1.68,1.68,0,0,0,1.07-2C1104.3,1891,1104.6,1889.76,1103.73,1889.9Z" transform="translate(-748.41 -1788.73)"/><path class="cls-1" d="M1111.08,1876.11c7.51,0,7.93-5.86,0-5.86C1103.69,1870.25,1103.87,1876.11,1111.08,1876.11Z" transform="translate(-748.41 -1788.73)"/><path class="cls-1" d="M1116.9,1890.45a1.63,1.63,0,0,1-1.25-1.38c-.36-2.72.11-7.94.11-8.93,0-1.41.35-1.41-1-1.41h-7.06a1.52,1.52,0,0,0-1.52,1.46c-.12,2.83-.39,8.72-.39,9.31a5,5,0,0,0,3.9,4.51c2.81.77,7.74.22,10-.36a1.51,1.51,0,0,0,1.11-1.47v-.3a1.53,1.53,0,0,0-1.87-1.48A3.43,3.43,0,0,1,1116.9,1890.45Z" transform="translate(-748.41 -1788.73)"/><path class="cls-1" d="M1174,1889.49c-1-.15-1.69-.25-1.4-1.52s.95-1.87-.29-3.36-3.81-3.6-4.33-4.2a2.79,2.79,0,0,1-.4-1.72,1.52,1.52,0,0,0-1.52-1.52h-7.7c-.53,0-1.72,1.35-1.25,3a1.35,1.35,0,0,1-.05,1,18.22,18.22,0,0,1-3.92,5.05,19.89,19.89,0,0,1-8.25,4.12c-1.77.3-5.73.83-8.3,0a4.86,4.86,0,0,1-3.45-3.81,4.61,4.61,0,0,1,2.46-3.82,16.81,16.81,0,0,1,5.95-1.34,1.54,1.54,0,0,0,1.43-1.4c.05-.56.1-1.11.1-1.22,0-1.15.52-1.49-1.39-1.49a56.38,56.38,0,0,0-9.66.64,24,24,0,0,0-5.84,1.88,8.51,8.51,0,0,0-4.76,7.36c0,1.92,2.46,6.29,9.26,7.22a44.55,44.55,0,0,0,12.42-.52,23.62,23.62,0,0,0,6.49-1.79c1.61-1.34,1.72-.34,1.9.11a2.27,2.27,0,0,0,1.46,1.45,23.08,23.08,0,0,0,7,.77,23.56,23.56,0,0,0,7-1.12,10.09,10.09,0,0,0,2.19-1.24c.58-.25,2.74.81,4.48,1.81a1.52,1.52,0,0,0,2.28-1.33v-1.9C1175.92,1890.15,1175,1889.64,1174,1889.49Zm-12.57,1.14c-.4.49-1.07.58-1.95.58s-2,.25-1.57-.89c.18-.31.34-.44.94-.44h2.23C1161.49,1889.87,1161.82,1890.17,1161.42,1890.63Zm.06-3.16h-2.94c-1.36,0-1.59-.27-1.36-.6s1.61-2.21,1.86-2.5.61-.12.94.11,1.24,1.37,1.92,2S1162.21,1887.47,1161.47,1887.47Z" transform="translate(-748.41 -1788.73)"/></svg>