<svg xmlns="http://www.w3.org/2000/svg" width="27.651" height="26.015" viewBox="0 0 27.651 26.015">
  <g id="paper-plane" transform="matrix(0.998, 0.07, -0.07, 0.998, 1.523, 0)">
    <path id="Path_15" data-name="Path 15" d="M8.75,17.612v5.062a.818.818,0,0,0,1.478.485l2.961-4.029Z" transform="translate(0.799 1.608)"/>
    <path id="Path_16" data-name="Path 16" d="M25.848.152a.819.819,0,0,0-.853-.059L.44,12.916a.819.819,0,0,0,.113,1.5L7.38,16.75,21.917,4.319,10.668,17.873l11.44,3.91a.837.837,0,0,0,.264.044.818.818,0,0,0,.81-.7l3-20.189a.82.82,0,0,0-.335-.788Z" transform="translate(0)"/>
  </g>
</svg>
