<svg xmlns="http://www.w3.org/2000/svg" width="22.408" height="22.501" viewBox="0 0 22.408 22.501">
  <path id="ledping-cart" d="M55.021,63.566a2.468,2.468,0,1,0,2.468,2.468,2.468,2.468,0,0,0-2.468-2.468Zm9.712,0A2.468,2.468,0,1,0,67.2,66.034,2.468,2.468,0,0,0,64.732,63.566Zm4.008-13.19h-16.8l-.364-2.146A2.672,2.672,0,0,0,48.936,46H47.4a.536.536,0,1,0,0,1.071h1.533a1.6,1.6,0,0,1,1.585,1.338l1.94,11.428a2.672,2.672,0,0,0,2.641,2.23H66.523a.536.536,0,1,0,0-1.071H55.1a1.6,1.6,0,0,1-1.585-1.338l-.2-1.149h11.2a3.2,3.2,0,0,0,3.061-2.232l1.669-5.2a.536.536,0,0,0-.51-.7Z" transform="translate(-46.868 -46)" fill="#5d5d5d"/>
</svg>
