<svg id="Capa_1" data-name="Capa 1" xmlns="http://www.w3.org/2000/svg" viewBox="0 0 512 468.59"><defs><style>.cls-1{fill:#545c74;}</style></defs><title>cart-1</title><path class="cls-1" d="M405.39,362.61a63.84,63.84,0,1,0,63.84,63.84A63.91,63.91,0,0,0,405.39,362.61Zm0,89.38a25.54,25.54,0,1,1,25.54-25.54A25.56,25.56,0,0,1,405.39,452Z" transform="translate(0 -21.71)"/><path class="cls-1" d="M507.93,115.88a19.13,19.13,0,0,0-15.08-7.35H118.22L101,36.41a19.16,19.16,0,0,0-18.63-14.7H19.15a19.15,19.15,0,1,0,0,38.3H67.24l62.24,260.44a19.15,19.15,0,0,0,18.63,14.7H446.25a19.15,19.15,0,0,0,18.59-14.54l46.6-188.33A19.18,19.18,0,0,0,507.93,115.88Zm-76.67,181h-268l-35.85-150h341Z" transform="translate(0 -21.71)"/><path class="cls-1" d="M173.65,362.61a63.84,63.84,0,1,0,63.84,63.84A63.91,63.91,0,0,0,173.65,362.61Zm0,89.38a25.54,25.54,0,1,1,25.54-25.54A25.56,25.56,0,0,1,173.65,452Z" transform="translate(0 -21.71)"/></svg>